<svg xmlns="http://www.w3.org/2000/svg" width="1024" height="1024" viewBox="0 0 1024 1024" version="1.1">
	<path d="M 479.942 131.287 C 461.442 137.594, 447.417 152.477, 442.475 171.045 C 440.260 179.369, 440.319 287.966, 442.543 296.505 C 447.549 315.724, 461.552 330.612, 480.144 336.486 C 487.937 338.948, 488.765 339.001, 519.802 339.033 L 551.500 339.066 576.532 363.337 C 603.694 389.674, 605.843 391.189, 616.043 391.196 C 625.914 391.203, 633.732 386.563, 638.493 377.870 C 641.354 372.646, 641.445 372.047, 641.831 355.791 L 642.229 339.083 683.364 338.791 C 723.436 338.508, 724.665 338.440, 730.887 336.193 C 746.855 330.426, 760.059 317.140, 766.140 300.723 C 769.590 291.407, 770.353 184.789, 767.063 171.777 C 763.118 156.179, 752.879 142.831, 739.499 135.846 C 725.486 128.531, 734.740 128.997, 604.068 129.026 C 486.500 129.052, 486.500 129.052, 479.942 131.287 M 493 149.946 C 481.192 151.816, 473.743 156.153, 467.994 164.508 C 461.400 174.092, 461.576 172.449, 461.213 228 C 460.782 294.138, 461.255 297.331, 473.166 308.596 C 483.172 318.059, 484.763 318.367, 525.811 318.792 L 561.121 319.157 587.811 345.079 C 602.490 359.335, 614.976 371, 615.559 371 C 616.141 371, 617.491 370.362, 618.559 369.583 C 620.351 368.274, 620.538 366.466, 621 345.993 C 621.681 315.809, 615.968 319.002, 669.306 318.994 C 722.874 318.987, 726.297 318.425, 737.136 307.868 C 747.755 297.525, 747.500 299.328, 747.500 234.500 C 747.500 168.373, 747.819 170.659, 737.080 159.920 C 725.857 148.697, 735.883 149.520, 608.500 149.367 C 547.450 149.294, 495.475 149.555, 493 149.946 M 525.502 218.575 C 512.114 225.556, 511.837 243.026, 525.008 249.815 C 540.455 257.778, 556.367 240.540, 547.514 225.434 C 543.234 218.130, 532.669 214.839, 525.502 218.575 M 597.450 218.407 C 587.956 222.542, 584.395 235.355, 590.304 244.123 C 599.755 258.147, 621.983 251.459, 621.996 234.588 C 622.006 222.021, 608.935 213.404, 597.450 218.407 M 669.422 218.418 C 667.730 219.155, 664.919 221.489, 663.176 223.603 C 648.924 240.893, 674.404 262.274, 689.683 245.847 C 702.046 232.556, 686.205 211.111, 669.422 218.418 M 322.250 321.001 C 283.050 326.508, 252.382 353.859, 241.815 392.737 C 238.800 403.826, 238.789 427.134, 241.792 438.175 C 255.951 490.229, 306.807 520.965, 357.376 508.032 C 437.911 487.434, 455.835 380.967, 386.346 335.952 C 367.099 323.483, 343.597 318.001, 322.250 321.001 M 317.179 342.945 C 295.924 348.166, 277.895 362.666, 268.001 382.500 C 257.315 403.922, 257.783 430.658, 269.202 451.013 C 298.702 503.600, 374.431 501.867, 400.819 448 C 428.438 391.618, 377.828 328.050, 317.179 342.945 M 697.164 380.054 C 653.220 387.910, 620.819 425.952, 620.922 469.568 C 621.026 513.199, 648.251 548.909, 689.552 559.587 C 748.664 574.870, 806.568 528.172, 803.704 467.527 C 801.766 426.482, 775.359 393.115, 736 381.976 C 727.377 379.536, 705.986 378.477, 697.164 380.054 M 697.500 401.566 C 693.650 402.415, 686.430 405.074, 681.456 407.476 C 631.150 431.772, 628.442 503.395, 676.758 531.736 C 729.557 562.707, 793.449 516.623, 781.472 456.208 C 776.538 431.323, 755.761 409.187, 731 402.438 C 722.645 400.160, 705.863 399.724, 697.500 401.566 M 387 520.410 C 341.340 542.085, 322.611 542.408, 278.647 522.283 C 269.157 517.939, 268.464 517.778, 259.862 517.915 C 224.379 518.482, 198.704 533.274, 185.949 560.500 C 179.811 573.602, 179.819 573.496, 180.184 638 C 180.559 704.372, 180.582 704.549, 190.455 719.271 L 194.968 726 176.234 726.006 C 151.877 726.013, 146.051 727.847, 142.364 736.671 C 140.135 742.007, 140.443 780.402, 142.752 784.929 C 146.860 792.986, 150.495 794.476, 166.074 794.489 L 179.990 794.500 179.995 840.349 C 179.999 879.622, 180.222 886.665, 181.545 889.454 C 184.702 896.107, 193.400 897.474, 198.223 892.077 C 201 888.968, 201 888.968, 201 841.984 L 201 795 376.750 794.976 C 478.659 794.962, 554.148 794.570, 556.423 794.043 C 560.898 793.005, 564.458 790.605, 567.438 786.618 C 569.336 784.079, 569.524 782.236, 569.807 763.430 L 570.114 743 583.495 743 C 598.802 743, 607.228 741.428, 616.201 736.898 L 622.137 733.902 621.579 738.201 C 621.272 740.565, 620.075 755.100, 618.919 770.500 C 617.763 785.900, 616.664 798.657, 616.477 798.849 C 616.289 799.041, 601.818 801.150, 584.318 803.536 C 566.818 805.921, 549.575 808.790, 546 809.910 C 526.984 815.869, 509.605 834.142, 505.018 853 C 502.843 861.941, 502.620 886.056, 504.676 890 C 507.975 896.330, 516.831 897.088, 521.750 891.462 C 523.786 889.133, 524 887.860, 524 878.081 C 524 858.782, 527.678 848.151, 537.442 839.227 C 547.371 830.152, 548.460 829.861, 596.500 823.435 C 630.659 818.866, 633.797 818.116, 636.008 813.984 C 637.061 812.018, 644.967 719.752, 644.989 709.184 C 645.002 702.843, 643.925 700.530, 640.020 698.510 C 633.628 695.205, 631.459 696.152, 620.968 706.836 C 610.640 717.353, 605.866 720.353, 596.789 722.031 C 593.248 722.686, 570.212 722.960, 533.775 722.781 C 476.343 722.500, 476.343 722.500, 472.565 719.618 C 463.525 712.721, 463.877 700.593, 473.322 693.592 C 476.066 691.558, 477.428 691.486, 522.822 691 C 555.914 690.646, 570.095 690.158, 571.543 689.325 C 572.667 688.679, 582.309 675.629, 592.969 660.325 C 627.958 610.097, 626.714 611.547, 640.500 604.897 C 652.416 599.149, 657.554 598.816, 728.500 599.186 C 789.500 599.505, 789.500 599.505, 795.441 601.896 C 807.660 606.813, 815.077 617.641, 815.812 631.633 L 816.243 639.848 767.371 640.261 C 712.787 640.723, 714.142 640.567, 699.274 648.074 C 684.056 655.758, 672.389 670.761, 668.614 687.500 C 667.635 691.840, 664.736 727.558, 660.984 781.500 C 657.656 829.350, 654.703 869.962, 654.421 871.750 L 653.909 875 608.010 875 C 562.112 875, 562.112 875, 559.494 877.252 C 554.094 881.897, 555.436 890.949, 562.014 894.248 C 565.286 895.890, 574.554 895.996, 713 895.984 C 828.076 895.973, 861.028 895.699, 862.904 894.735 C 868.756 891.727, 868.560 892.984, 872.937 830.500 C 875.171 798.600, 878.398 752.925, 880.106 729 C 883.538 680.953, 883.422 676.470, 878.487 666.383 C 872.520 654.187, 858.065 643.037, 846.233 641.504 C 836.413 640.232, 837 640.771, 837 633.030 C 837 606.831, 819.612 584.744, 794.797 579.421 C 786.831 577.712, 661.314 577.396, 651.065 579.059 C 636.647 581.398, 623.773 587.687, 613.020 597.642 C 608.980 601.382, 600.496 612.506, 587.303 631.362 C 576.474 646.838, 565.900 661.845, 563.804 664.711 L 559.994 669.922 515.247 670.211 C 470.500 670.500, 470.500 670.500, 465.500 673.161 C 451.489 680.618, 445.496 690.607, 445.507 706.485 C 445.512 714.662, 445.915 717.372, 447.700 721.250 L 449.888 726 407.337 726 C 367.220 726, 364.825 725.900, 365.464 724.250 C 371.948 707.526, 368.748 691.836, 356.362 679.625 C 346.208 669.615, 345.964 669.568, 300.500 669 L 260.500 668.500 260 642.329 C 259.504 616.369, 259.481 616.136, 257.090 613.594 C 252.241 608.437, 243.785 609.648, 240.517 615.967 C 238.638 619.600, 238.255 677.564, 240.075 682.785 C 242.438 689.562, 241.605 689.446, 291.500 690 C 336.287 690.498, 336.515 690.511, 339.679 692.768 C 350.867 700.747, 349.928 717.915, 337.971 724.015 C 334.041 726.020, 332.714 726.062, 282.699 725.784 C 231.454 725.500, 231.454 725.500, 224.929 722.287 C 217.183 718.472, 209.804 711.520, 206.425 704.852 C 201.112 694.368, 200.998 692.876, 201.021 634.040 C 201.042 579.500, 201.042 579.500, 203.374 572.893 C 210.432 552.899, 228.654 540.797, 255.245 538.442 C 262.494 537.800, 262.511 537.804, 276 543.779 C 319.454 563.028, 345.713 562.509, 391.220 541.503 C 405.149 535.073, 405.444 534.988, 411.925 535.562 C 453.233 539.219, 468.943 562.748, 471.887 625.372 C 472.828 645.384, 474.164 648.059, 483.286 648.185 C 486.667 648.231, 487.892 647.685, 490.198 645.105 C 492.957 642.017, 493 641.772, 493 629.228 C 493 622.221, 492.320 610.675, 491.489 603.571 C 484.199 541.247, 457.707 514.884, 401.500 514.017 C 400.950 514.009, 394.425 516.885, 387 520.410 M 716.500 663.402 C 703.745 667.446, 692.541 678.820, 688.850 691.472 C 688.364 693.137, 685.486 730.275, 682.455 774 C 679.424 817.725, 676.607 858.112, 676.195 863.750 L 675.446 874 762.223 874 C 809.950 874, 849 873.775, 849 873.501 C 849 872.340, 857.221 754.551, 859.600 721.632 C 861.025 701.904, 861.898 683.804, 861.539 681.409 C 860.557 674.865, 855.507 668.097, 849.136 664.787 C 843.772 662, 843.772 662, 782.136 662.067 C 735.277 662.118, 719.541 662.438, 716.500 663.402 M 162 760.750 L 162 774 355.500 774 L 549 774 549 760.490 L 549 746.980 355.500 747.240 L 162 747.500 162 760.750" stroke="none" fill="#9fb4b4" fill-rule="evenodd"/>
</svg>