<svg xmlns="http://www.w3.org/2000/svg" width="1024" height="1024" viewBox="0 0 1024 1024" version="1.1">
	<path d="M 274.102 125.894 C 270.304 127.917, 267.105 133.072, 267.042 137.270 C 266.997 140.215, 267.939 142.653, 278.521 167 C 295.121 205.195, 308.738 251.273, 314.996 290.428 L 317.062 303.356 279.218 341.428 C 235.659 385.248, 236.166 384.563, 230.978 406.649 C 226.219 426.906, 230.377 421.737, 170.770 481.500 C 141.148 511.200, 116.488 536.175, 115.971 537 C 114.829 538.822, 114.724 547.017, 115.820 548.744 C 117.995 552.168, 211.683 645.309, 213.739 646.091 C 221.599 649.079, 223.174 648.092, 244.750 626.653 C 254.787 616.680, 262.996 608.966, 262.991 609.510 C 262.986 610.055, 260.951 617.692, 258.468 626.483 C 234.206 712.380, 228.209 792.090, 240.076 870.945 C 243.342 892.649, 244.578 895.586, 251.718 898.629 C 255.892 900.408, 767.004 900.707, 771.685 898.933 C 779.189 896.090, 780.319 893.572, 783.489 872.619 C 795.658 792.194, 789.984 714.395, 765.547 626.617 C 763.046 617.633, 761 609.886, 761 609.401 C 761 608.917, 769.212 616.680, 779.250 626.653 C 800.897 648.162, 802.383 649.086, 810.403 646.037 C 813.093 645.014, 907.024 550.989, 908.180 548.163 C 908.554 547.248, 908.891 544.492, 908.930 542.039 C 909 537.577, 909 537.577, 854.609 483.039 C 817.798 446.127, 799.516 427.100, 798.047 424.168 C 796.853 421.785, 794.981 415.710, 793.888 410.668 C 788.274 384.768, 789.410 386.368, 744.679 341.333 L 706.770 303.166 708.910 289.833 C 715.500 248.789, 729.457 203.009, 748.493 160 C 752.753 150.375, 756.437 140.700, 756.680 138.500 C 757.245 133.380, 754.540 128.295, 749.938 125.827 C 744.648 122.990, 279.431 123.055, 274.102 125.894 M 301.291 152.250 C 301.568 152.938, 304.535 160.187, 307.884 168.361 C 319.889 197.661, 330.586 232.744, 337.044 264 C 338.806 272.525, 340.322 279.593, 340.414 279.707 C 340.506 279.821, 344.330 276.283, 348.913 271.845 C 359.467 261.626, 365.593 258.577, 375.500 258.611 C 383.888 258.640, 391.077 261.421, 396.064 266.566 C 400.180 270.813, 399.840 270.835, 405.124 265.972 C 416.408 255.585, 434.045 256.877, 447.384 269.068 C 452.602 273.837, 452.765 273.904, 456.598 272.845 C 476.036 267.477, 497.429 283.534, 498.773 304.500 C 499.433 314.794, 497.950 318.911, 490.851 326.500 L 484.782 332.988 487.885 336.522 C 495.451 345.139, 498.004 357.344, 494.495 368.121 C 492.879 373.085, 490.280 375.976, 460.847 405.559 C 443.304 423.191, 429.262 437.929, 429.642 438.309 C 430.022 438.689, 435.866 439, 442.629 439 C 458.297 439, 463.759 440.803, 471.478 448.522 C 483.326 460.369, 485.200 479.716, 475.707 492.162 C 469.185 500.713, 471.706 499.832, 376 527.002 C 354.275 533.170, 334.925 539.033, 333 540.032 C 328.949 542.133, 315.297 555.630, 316.254 556.587 C 317.338 557.671, 354.181 564.676, 378.500 568.422 C 459.199 580.851, 545.792 581.715, 627.500 570.906 C 656.129 567.119, 706.224 558.109, 707.885 556.449 C 708.726 555.608, 695.774 543.012, 691.500 540.514 C 689.300 539.228, 670.625 533.386, 650 527.531 C 552.545 499.864, 557.555 501.475, 551.444 495.842 C 538.568 483.973, 539.509 459.342, 553.292 447.455 C 561.453 440.416, 564.021 439.595, 579 439.229 C 586.425 439.047, 593.152 438.676, 593.949 438.404 C 594.903 438.079, 584.598 427.074, 563.796 406.205 C 546.415 388.767, 531.363 372.925, 530.347 371 C 528.925 368.306, 528.501 365.312, 528.503 358 C 528.506 347.458, 530.035 343.206, 535.874 337.500 C 539.892 333.574, 539.938 333.757, 533.101 326.449 C 525.881 318.731, 524.624 315.255, 525.210 304.625 C 525.775 294.392, 528.696 288.307, 536.440 281.229 C 545.241 273.185, 559.445 269.557, 568.563 273.024 C 571.010 273.954, 571.723 273.608, 576.378 269.222 C 584.315 261.745, 589.781 259.498, 600 259.512 C 609.487 259.525, 614.086 261.275, 619.437 266.908 C 623.138 270.804, 623.856 270.775, 627.936 266.566 C 632.923 261.421, 640.112 258.640, 648.500 258.611 C 658.407 258.577, 664.367 261.557, 674.963 271.845 C 679.583 276.330, 683.455 280, 683.568 280 C 683.681 280, 684.324 276.962, 684.997 273.250 C 691 240.117, 709.808 178.993, 720.431 158.088 C 721.155 156.665, 722.059 154.488, 722.441 153.250 C 723.135 151, 723.135 151, 511.960 151 C 343.418 151, 300.888 151.252, 301.291 152.250 M 317.888 340.750 C 255.762 403.077, 259.949 397.887, 255.470 418.135 C 250.903 438.783, 253.080 436.024, 196.585 492.763 L 146.537 543.027 182.504 579.004 L 218.470 614.981 264.485 569.137 C 289.793 543.922, 312.650 521.846, 315.278 520.078 C 322.776 515.036, 329.089 512.632, 350.524 506.655 C 361.511 503.592, 381.525 497.926, 395 494.065 C 460.408 475.322, 456.836 476.697, 454.858 471.023 C 452.789 465.088, 452.300 465, 421.512 465 C 396.262 465, 393.129 464.818, 390.062 463.173 C 384.258 460.060, 381.374 452.072, 384.109 446.684 C 384.719 445.483, 404.294 425.363, 427.609 401.973 C 450.924 378.583, 470 358.740, 470 357.878 C 470 356.217, 466.977 353, 465.416 353 C 464.906 353, 448.967 368.554, 429.995 387.566 C 411.023 406.577, 394.285 422.777, 392.800 423.566 C 382.118 429.240, 369.842 416.942, 375.419 406.156 C 376.200 404.646, 396.265 384.081, 420.008 360.455 C 473.302 307.425, 473.611 307.083, 471.628 303.248 C 470.815 301.676, 468.909 299.824, 467.391 299.132 C 464.644 297.881, 464.438 298.070, 417.566 344.833 C 391.680 370.660, 369.517 392.288, 368.316 392.896 C 363.151 395.507, 353.348 392.787, 351.495 388.230 C 347.009 377.196, 345.730 378.960, 391.523 333 C 431.420 292.958, 431.861 292.471, 430.507 289.942 C 429.753 288.535, 427.902 286.821, 426.393 286.133 C 423.666 284.891, 423.378 285.153, 381.047 327.441 C 336.150 372.294, 338.067 370.693, 330.069 370.015 C 321.481 369.288, 316.698 356.674, 322.269 349.444 C 323.517 347.825, 337.017 334.089, 352.269 318.921 C 371.313 299.981, 380 290.673, 380 289.206 C 380 287.100, 377.401 285, 374.795 285 C 374.060 285, 348.452 310.087, 317.888 340.750 M 596.151 286.607 C 590.173 290.794, 589.014 289.316, 632.507 333 C 675.674 376.357, 676.007 376.770, 673.927 384.304 C 671.781 392.074, 662.606 396.395, 655.684 392.896 C 654.483 392.288, 632.303 370.643, 606.395 344.795 C 559.291 297.798, 559.291 297.798, 556.102 299.447 C 551.065 302.052, 550.360 305.417, 553.925 309.843 C 555.545 311.854, 577.179 333.750, 602 358.500 C 626.822 383.250, 647.776 404.715, 648.565 406.200 C 653.305 415.120, 645.992 425.585, 635.642 424.692 C 630.783 424.273, 630.783 424.273, 595.136 388.636 C 575.531 369.036, 558.999 353, 558.400 353 C 556.910 353, 554 356.341, 554 358.052 C 554 358.818, 573.076 378.583, 596.391 401.973 C 619.706 425.363, 639.281 445.483, 639.891 446.684 C 641.526 449.904, 641.248 453.595, 639.044 457.914 C 635.669 464.530, 633.187 465, 601.615 465 C 571.446 465, 569.940 465.302, 568.737 471.594 C 567.919 475.876, 570.450 477.231, 589.523 482.713 C 599.410 485.555, 618.750 491.116, 632.500 495.072 C 646.250 499.028, 664.700 504.266, 673.500 506.712 C 693.903 512.384, 699.077 514.223, 705.932 518.238 C 709.792 520.499, 725.926 535.836, 758.524 568.231 L 805.548 614.963 841.510 578.990 L 877.472 543.017 826.907 492.259 C 769.709 434.842, 773.520 439.735, 768.042 416.675 C 766.380 409.683, 764.072 402.058, 762.912 399.731 C 761.506 396.911, 742.404 377.058, 705.651 340.218 C 646.892 281.319, 647.913 282.189, 644.191 287.826 C 642.681 290.113, 643.147 290.641, 672.376 319.826 C 705.882 353.281, 703.964 351.037, 703.985 356.800 C 704.018 366.267, 698.605 370.796, 688.027 370.151 C 686.194 370.039, 674.540 358.997, 643.012 327.500 C 619.613 304.125, 600.014 285, 599.457 285 C 598.900 285, 597.413 285.723, 596.151 286.607 M 292.255 605.323 C 288.273 618.701, 283.638 634.915, 281.954 641.353 L 278.893 653.059 289.197 662.867 C 343.455 714.514, 413.088 756.898, 481.873 780.143 C 489.779 782.814, 496.866 785, 497.623 785 C 498.743 785, 499 781.527, 499 766.404 C 499 750.985, 499.279 747.336, 500.636 745.040 C 504.755 738.066, 514.610 736.784, 520.765 742.421 C 524.500 745.842, 524.500 745.842, 524.809 765.421 C 525.036 779.732, 525.439 784.997, 526.309 784.987 C 527.895 784.970, 540.475 780.909, 550.936 777.036 C 619.251 751.747, 682.973 711.980, 736.302 661.355 L 745.104 652.999 742.514 643.249 C 733.788 610.398, 724.502 581, 722.852 581 C 721.911 581, 714.022 582.555, 705.321 584.455 C 605.519 606.250, 496.394 610.804, 395 597.406 C 366.911 593.694, 335.851 588.472, 318.066 584.472 C 309.578 582.562, 301.927 581, 301.064 581 C 299.880 581, 297.718 586.972, 292.255 605.323 M 271.626 685.677 C 268.958 694.437, 263.575 733.423, 261.930 755.904 C 259.690 786.509, 261.629 837.237, 266.130 865.750 L 267.274 873 383.152 873 L 499.030 873 498.765 843.308 L 498.500 813.615 482.500 808.473 C 412.421 785.950, 341.574 745.268, 284.987 695.054 C 271.107 682.738, 272.272 683.556, 271.626 685.677 M 744.938 689.776 C 687.503 742.015, 618.093 782.711, 544 807.590 L 525.500 813.801 525.235 843.401 L 524.970 873 640.870 873 L 756.770 873 757.887 865.250 C 763.031 829.574, 764.332 771.441, 760.713 739 C 758.846 722.258, 753.240 687.310, 752.085 685.210 C 751.584 684.299, 749.486 685.639, 744.938 689.776" stroke="none" fill="#9fb4b4" fill-rule="evenodd"/>
</svg>