<svg xmlns="http://www.w3.org/2000/svg" width="1024" height="1024" viewBox="0 0 1024 1024" version="1.1">
	<path d="M 426.972 76.331 C 425.383 77.065, 424.573 78.147, 424.793 79.241 C 425.099 80.764, 424.565 80.902, 420.516 80.347 C 416.589 79.809, 415.676 80.017, 414.480 81.725 C 413.523 83.092, 412.304 83.590, 410.676 83.278 C 408.837 82.927, 408.145 83.336, 407.700 85.040 C 407.299 86.574, 406.621 87.069, 405.507 86.641 C 403.525 85.881, 383 106.275, 383 109.005 C 383 109.985, 382.325 111.045, 381.500 111.362 C 380.675 111.678, 380 113.024, 380 114.352 C 380 115.936, 379.303 116.949, 377.974 117.296 C 376.205 117.759, 376.033 118.352, 376.611 121.971 C 377.197 125.631, 377.028 126.180, 375.170 126.666 C 372.935 127.250, 371.438 130.282, 372.520 132.032 C 373.380 133.424, 373.398 148.547, 372.541 149.933 C 371.459 151.684, 372.934 154.844, 375.163 155.552 C 376.944 156.117, 377.137 156.744, 376.586 160.190 C 376.028 163.675, 376.212 164.243, 378.049 164.723 C 379.684 165.151, 380.016 165.799, 379.551 167.652 C 379.069 169.572, 379.461 170.225, 381.579 171.030 C 383.290 171.680, 384.006 172.541, 383.638 173.502 C 383.295 174.394, 384.838 176.845, 387.554 179.720 C 390.456 182.792, 391.811 184.999, 391.399 185.982 C 390.578 187.939, 390.590 188.904, 391.479 192.235 C 392.101 194.565, 391.836 195.112, 389.689 195.928 C 388.303 196.455, 387.018 197.657, 386.834 198.599 C 386.535 200.131, 384.976 200.292, 372 200.131 C 364.025 200.033, 355.595 199.688, 353.267 199.365 C 349.360 198.823, 348.957 198.984, 348.017 201.456 C 347.245 203.486, 346.530 203.985, 345.060 203.519 C 343.719 203.093, 342.784 203.535, 342.026 204.952 C 341.423 206.078, 340.270 207, 339.465 207 C 338.659 207, 338 207.450, 338 208 C 338 208.550, 337.325 209, 336.500 209 C 335.675 209, 335 209.723, 335 210.607 C 335 211.674, 334.458 212.006, 333.389 211.596 C 332.185 211.134, 331.940 211.402, 332.421 212.655 C 332.862 213.805, 331.889 215.441, 329.324 217.860 C 326.256 220.754, 325.635 221.983, 325.868 224.694 C 326.072 227.057, 325.736 228, 324.692 228 C 323.888 228, 322.480 229.145, 321.562 230.545 C 319.895 233.090, 319.895 233.090, 251.447 232.795 C 186.813 232.516, 182.999 232.598, 183 234.250 C 183 235.213, 182.213 236.053, 181.250 236.118 C 178.919 236.276, 178.775 236.255, 176.750 235.467 C 175.403 234.943, 175 235.300, 175 237.018 C 175 238.965, 174.616 239.173, 172 238.650 C 169.717 238.193, 169 238.414, 169 239.573 C 169 241.594, 163.851 246.069, 162.198 245.484 C 161.482 245.230, 161.154 245.441, 161.470 245.952 C 162.058 246.902, 158.276 251, 156.811 251 C 156.365 251, 156 251.900, 156 253 C 156 254.100, 155.433 255, 154.741 255 C 154.048 255, 152.919 255.900, 152.232 257 C 151.545 258.100, 150.312 259, 149.492 259 C 147.800 259, 147.492 260.568, 149 261.500 C 150.671 262.533, 150.119 264, 148.059 264 C 145.621 264, 144.419 265.819, 145.887 267.287 C 147.719 269.119, 147.159 270.970, 144.394 272.230 C 141.999 273.322, 141.833 273.787, 142.348 277.959 C 143.045 283.596, 143.198 897.135, 142.503 897.830 C 142.226 898.107, 142 900.058, 142 902.167 C 142 905.353, 142.343 906, 144.031 906 C 146.436 906, 147.744 908.656, 146.133 910.267 C 144.318 912.082, 144.819 913.835, 147.250 914.180 C 148.647 914.379, 149.503 915.196, 149.507 916.336 C 149.511 917.346, 150.328 918.767, 151.322 919.494 C 152.316 920.221, 152.988 921.464, 152.815 922.255 C 152.642 923.047, 154.863 926.012, 157.750 928.843 C 160.638 931.674, 163 934.473, 163 935.062 C 163 935.666, 163.842 935.868, 164.926 935.524 C 166.088 935.155, 167.178 935.480, 167.676 936.345 C 168.129 937.132, 169.400 937.951, 170.500 938.163 C 171.913 938.436, 172.408 939.203, 172.187 940.775 C 171.831 943.305, 172.264 943.477, 174.881 941.842 C 177.274 940.348, 180.179 941.467, 179.797 943.737 C 179.568 945.093, 180.077 945.427, 182 945.183 C 188.968 944.300, 191.499 944.520, 191.403 946 C 191.317 947.330, 219.228 947.500, 437 947.500 C 654.772 947.500, 682.683 947.330, 682.597 946 C 682.497 944.452, 684.134 944.273, 691 945.086 C 694.043 945.446, 694.543 945.198, 694.828 943.188 C 695.107 941.220, 695.572 940.967, 697.948 941.489 C 700.206 941.984, 700.843 941.709, 701.276 940.051 C 701.605 938.795, 702.636 938, 703.938 938 C 705.107 938, 706.322 937.325, 706.638 936.500 C 706.955 935.675, 707.766 935, 708.440 935 C 709.115 935, 710.821 933.763, 712.231 932.250 C 713.641 930.737, 716.641 927.552, 718.898 925.171 C 721.154 922.790, 723 920.202, 723 919.421 C 723 918.639, 723.872 918, 724.937 918 C 726.604 918, 726.792 917.496, 726.288 914.385 C 725.740 911.009, 725.847 910.817, 727.910 911.471 C 730.075 912.159, 730.105 912.046, 729.438 905.836 C 728.876 900.604, 728.988 899.718, 730.079 900.750 C 730.805 901.437, 731.760 902, 732.200 902 C 732.640 902, 733 841.052, 733 766.559 L 733 631.118 801.750 562.164 C 872.033 491.672, 875 488.632, 875 487.099 C 875 486.612, 875.675 485.955, 876.500 485.638 C 877.325 485.322, 878 483.909, 878 482.499 C 878 480.783, 878.716 479.671, 880.167 479.134 C 882.027 478.446, 882.376 477.438, 882.631 472.013 C 882.965 464.917, 882.469 463.366, 880.411 465.074 C 878.888 466.338, 878.610 465.629, 878.950 461.337 C 879.061 459.921, 878.389 458.941, 877.003 458.501 C 875.839 458.131, 875.024 457.164, 875.193 456.352 C 875.369 455.504, 863.735 443.286, 847.900 427.687 C 832.719 412.734, 820.232 399.909, 820.150 399.187 C 820.063 398.428, 819.051 398.006, 817.750 398.187 C 816.130 398.412, 815.420 397.940, 815.213 396.500 C 814.799 393.612, 791 393.366, 791 396.250 C 791 397.396, 790.223 398.003, 788.750 398.008 C 787.147 398.013, 779.328 405.202, 761.557 423.008 C 747.838 436.753, 736.267 448, 735.842 448 C 733.231 448, 733 440.859, 733 360.066 C 733 288.205, 732.794 276, 731.583 276 C 730.804 276, 729.901 276.563, 729.576 277.250 C 729.251 277.938, 729.186 275.863, 729.432 272.640 C 729.825 267.477, 729.648 266.721, 727.939 266.274 C 726.737 265.959, 726 264.902, 726 263.490 C 726 262.238, 725.325 260.955, 724.500 260.638 C 723.675 260.322, 723 259.252, 723 258.262 C 723 257.272, 719.177 252.870, 714.503 248.481 C 709.830 244.091, 706.005 239.882, 706.003 239.128 C 706.001 238.026, 705.706 237.999, 704.513 238.989 C 702.387 240.754, 700.039 239.568, 700.694 237.061 C 701.272 234.852, 699.611 234.327, 697.091 235.923 C 695.195 237.123, 693 236.168, 693 234.143 C 693.001 232.632, 687.359 232.522, 622.750 232.779 C 552.500 233.057, 552.500 233.057, 550.829 230.085 C 549.910 228.450, 549.400 226.187, 549.696 225.056 C 550.120 223.433, 549.761 223, 547.992 223 C 546.034 223, 545.826 222.620, 546.350 220 C 546.849 217.505, 546.629 217, 545.042 217 C 543.993 217, 542.854 216.116, 542.511 215.036 C 542.168 213.955, 539.888 211.311, 537.444 209.160 C 535 207.008, 533 204.742, 533 204.124 C 533 203.506, 531.702 203, 530.117 203 C 528.074 203, 527.081 202.417, 526.710 201 C 526.189 199.008, 523.269 198.314, 521.450 199.750 C 520.928 200.162, 512.937 200.366, 503.694 200.203 L 486.889 199.906 484.980 195.453 C 483.905 192.944, 482.401 191, 481.536 191 C 479.307 191, 479.641 187.241, 482 185.768 C 483.100 185.081, 484 183.952, 484 183.259 C 484 182.567, 484.705 182, 485.567 182 C 486.593 182, 486.953 181.396, 486.610 180.250 C 485.971 178.119, 489.187 174, 491.490 174 C 492.807 174, 493.026 173.395, 492.529 171.130 C 492.008 168.758, 492.270 168.163, 494.039 167.700 C 495.716 167.262, 496.028 166.665, 495.482 164.944 C 494.947 163.257, 495.432 162.230, 497.575 160.522 C 500.179 158.446, 500.281 158.093, 499.101 155.243 C 497.426 151.200, 497.986 147.459, 500.240 147.637 C 501.196 147.712, 501.755 147.413, 501.482 146.971 C 501.209 146.529, 501.430 145, 501.972 143.573 C 503.424 139.755, 502.187 132.231, 500.132 132.381 C 498.447 132.504, 498.308 131.353, 499.116 124.001 C 499.447 120.981, 499.187 120.457, 497.219 120.177 C 495.198 119.890, 495.011 119.461, 495.580 116.426 C 496.147 113.403, 495.974 113, 494.111 113 C 492.526 113, 492 112.377, 492 110.500 C 492 109.125, 491.546 108, 490.992 108 C 490.437 108, 489.264 106.200, 488.383 104 C 487.503 101.800, 486.241 100, 485.579 100 C 484.319 100, 479 94.902, 479 93.695 C 479 91.897, 474.993 89.189, 473.074 89.691 C 471.614 90.073, 471 89.760, 471 88.636 C 471 87.757, 469.867 86.754, 468.482 86.406 C 466.898 86.008, 466.064 85.170, 466.232 84.145 C 466.442 82.868, 465.798 82.584, 463.248 82.834 C 460.916 83.061, 459.812 82.673, 459.346 81.460 C 458.822 80.093, 457.865 79.884, 454.349 80.366 C 450.552 80.886, 450 80.724, 450 79.088 C 450 76.242, 442.048 74.495, 440.500 77 C 439.546 78.544, 433.396 78.182, 432 76.500 C 430.564 74.770, 430.363 74.763, 426.972 76.331 M 432 100.800 C 432 101.240, 432.477 102.077, 433.060 102.660 C 434.540 104.140, 427.063 105.297, 425.326 103.856 C 423.522 102.358, 420.888 103.543, 421.643 105.513 C 422.138 106.803, 421.760 106.978, 419.636 106.445 C 417.730 105.966, 416.851 106.224, 416.402 107.394 C 416.063 108.277, 415.140 109, 414.351 109 C 411.524 109, 405.747 114.924, 406.345 117.210 C 406.625 118.281, 406.078 119.158, 404.897 119.533 C 403.854 119.864, 403 120.904, 403 121.845 C 403 122.786, 402.107 124.320, 401.016 125.254 C 399.398 126.640, 399.213 127.431, 400.016 129.542 C 401.501 133.448, 401.212 135, 399 135 C 397.218 135, 397 135.667, 397 141.122 C 397 146.374, 397.207 147.073, 398.459 146.034 C 400.500 144.340, 401.677 149.218, 400.076 152.733 C 398.919 155.272, 399.797 156.937, 402.317 156.985 C 402.767 156.993, 402.881 157.799, 402.571 158.775 C 402.015 160.528, 403.321 162.208, 409.203 167.302 C 411.063 168.912, 411.740 170.280, 411.373 171.684 C 410.978 173.193, 411.415 173.875, 413.051 174.303 C 414.733 174.743, 415.129 175.399, 414.700 177.037 C 413.938 179.953, 414.854 182, 416.919 182 C 418.352 182, 418.625 183.041, 418.625 188.500 C 418.625 193.198, 418.261 195, 417.313 195 C 416.591 195, 416 194.460, 416 193.800 C 416 192.885, 415.723 192.877, 414.832 193.768 C 413.942 194.658, 413.942 195.862, 414.832 198.834 C 416.357 203.925, 416.345 204, 413.969 204 C 411.372 204, 410.643 205.931, 411.946 209.357 C 412.865 211.775, 412.704 212.162, 410.419 213.031 C 408.470 213.772, 408.016 214.474, 408.500 216 C 408.982 217.518, 408.535 218.226, 406.644 218.945 C 405.274 219.466, 404.006 220.854, 403.827 222.029 C 403.504 224.138, 403.232 224.164, 382.028 224.046 C 370.218 223.980, 359.534 223.670, 358.287 223.357 C 356.747 222.971, 355.821 223.304, 355.402 224.394 C 355.063 225.277, 354.229 226, 353.548 226 C 351.346 226, 349.061 229.505, 349.283 232.542 C 349.459 234.939, 349.145 235.439, 347.626 235.178 C 345.867 234.875, 345.796 235.393, 346.477 243.571 C 347.200 252.242, 347.192 252.283, 344.978 251.704 C 342.773 251.128, 342.759 251.197, 343.451 259.135 C 344.122 266.820, 344.061 267.171, 341.960 267.721 C 339.892 268.262, 339.807 268.668, 340.437 275.054 C 341.048 281.260, 340.925 281.939, 338.928 283.338 C 336.971 284.709, 336.822 285.421, 337.448 290.431 C 337.895 294.006, 337.779 296, 337.123 296 C 336.562 296, 334.889 297.125, 333.405 298.500 C 331.922 299.875, 330.376 301, 329.971 301 C 329.565 301, 328.988 301.936, 328.689 303.080 C 328.228 304.843, 327.480 305.119, 323.782 304.892 C 318.149 304.545, 317 305.347, 317 309.625 C 317 314.174, 318.687 317.334, 320.702 316.561 C 322.774 315.766, 551.855 315.792, 553.142 316.588 C 554.817 317.623, 559 312.882, 559 309.948 C 559 305.967, 556.688 304.604, 550.432 304.893 C 545.199 305.136, 545 305.051, 545 302.573 C 545 300.667, 544.482 300, 543 300 C 541.900 300, 541 299.564, 541 299.031 C 541 298.499, 540.256 298.348, 539.346 298.698 C 537.914 299.247, 537.779 298.783, 538.344 295.249 C 538.928 291.598, 538.712 290.957, 536.311 289.208 C 533.637 287.260, 533.631 287.226, 534.914 281.494 C 536.199 275.750, 536.196 275.731, 533.443 273.536 C 530.558 271.236, 530.535 270.899, 532.606 261.768 C 533.132 259.452, 532.815 258.880, 530.521 258.008 C 527.905 257.013, 527.840 256.806, 528.571 251.740 C 529.792 243.266, 529.705 242.500, 527.513 242.498 C 525.071 242.496, 524.473 239.950, 525.932 235.766 C 526.976 232.771, 526.808 232.416, 522.369 228.223 L 517.711 223.823 494.356 223.846 C 473.786 223.867, 471 223.683, 471 222.300 C 471 220.536, 466.220 215.689, 464.158 215.363 C 462.034 215.026, 461.760 214.316, 462.919 212.151 C 464.622 208.969, 464.228 207, 461.886 207 C 459.966 207, 459.831 206.611, 460.411 202.748 C 460.977 198.972, 460.793 198.383, 458.774 197.498 C 456.937 196.692, 456.554 195.828, 456.779 193 C 457.090 189.089, 457.078 185.944, 456.733 181.500 C 456.541 179.027, 456.914 178.441, 458.858 178.166 C 460.885 177.879, 461.135 177.423, 460.633 174.916 C 460.265 173.073, 460.465 172, 461.179 172 C 463.351 172, 470.054 163.746, 469.443 161.822 C 469.007 160.446, 469.390 160, 471.012 160 C 472.877 160, 473.072 159.606, 472.500 157 C 471.933 154.417, 472.130 154, 473.921 154 C 476.245 154, 476.551 152.303, 474.884 148.645 C 474.136 147.002, 474.080 145.259, 474.716 143.353 C 475.317 141.550, 475.309 139.114, 474.694 136.693 C 474.010 133.997, 474.059 132.541, 474.862 131.738 C 476.692 129.908, 476.175 127.279, 473.868 126.676 C 472.231 126.248, 471.873 125.595, 472.325 123.865 C 472.793 122.075, 471.793 120.509, 467.457 116.242 C 464.456 113.288, 461.986 110.563, 461.969 110.186 C 461.889 108.449, 456.871 105.862, 455.610 106.909 C 454.060 108.195, 453 107.348, 453 104.825 C 453 103.176, 452.412 103.052, 447.385 103.643 C 441.965 104.279, 441.793 104.227, 442.452 102.151 C 443.095 100.125, 442.810 100, 437.567 100 C 434.505 100, 432 100.360, 432 100.800 M 189.542 257.750 C 189.278 258.438, 187.951 259, 186.593 259 C 185.235 259, 182.645 260.350, 180.839 262 C 179.032 263.650, 177.056 265, 176.446 265 C 175.378 265, 173.790 267.596, 172.622 271.250 C 172.314 272.212, 171.401 273, 170.592 273 C 169.500 273, 169.170 274.088, 169.311 277.227 C 169.452 280.394, 169.124 281.460, 168 281.477 C 166.671 281.497, 166.471 316.425, 166.248 588.714 C 165.997 895.928, 165.997 895.928, 168.105 897.056 C 169.759 897.942, 170.089 898.806, 169.635 901.073 C 169.186 903.320, 169.513 904.204, 171.106 905.057 C 172.404 905.751, 172.931 906.737, 172.544 907.745 C 171.889 909.453, 177.464 916, 179.574 916 C 180.223 916, 181.315 916.675, 182 917.500 C 182.685 918.325, 184.042 919, 185.015 919 C 185.989 919, 187.045 919.675, 187.362 920.500 C 188.009 922.188, 193.527 922.575, 194.500 921 C 194.909 920.338, 276.991 920, 437.500 920 C 598.009 920, 680.091 920.338, 680.500 921 C 681.646 922.854, 686.152 922.136, 686.708 920.010 C 687.106 918.485, 687.785 918.159, 689.605 918.616 C 691.258 919.031, 692.169 918.723, 692.598 917.606 C 692.937 916.723, 693.966 916, 694.884 916 C 696.783 916, 702 910.478, 702 908.469 C 702 907.739, 702.788 906.352, 703.750 905.384 C 706.211 902.911, 706.148 906.003, 706.333 780 C 706.425 717.575, 706.886 666.219, 707.357 665.875 C 708.656 664.927, 707.072 661, 705.390 661 C 704.579 661, 703.215 661.563, 702.359 662.250 C 698.259 665.542, 679 685.047, 679 685.908 C 679 686.446, 678.087 687.526, 676.971 688.308 C 674.953 689.721, 674.944 690.246, 675.221 786.365 C 675.442 862.805, 675.241 883, 674.258 883 C 673.576 883, 672.455 883.900, 671.768 885 C 671.081 886.100, 669.577 887, 668.426 887 C 665.643 887, 664.767 888.014, 666.131 889.658 C 667.062 890.780, 629.862 891, 439.204 891 C 313.782 891, 210.413 891.288, 209.495 891.640 C 208.182 892.144, 207.898 891.777, 208.163 889.915 C 208.408 888.193, 207.956 887.444, 206.500 887.163 C 205.400 886.951, 204.140 886.152, 203.700 885.389 C 203.260 884.625, 202.275 884, 201.509 884 C 199.833 884, 198.665 882.351, 199.446 881.087 C 200.184 879.892, 200.183 297.106, 199.445 295.911 C 199.134 295.408, 199.970 294.582, 201.303 294.075 C 202.637 293.568, 203.999 292.444, 204.332 291.577 C 204.871 290.172, 210.073 290, 252 290 C 292.911 290, 299.138 289.804, 299.638 288.500 C 299.955 287.675, 300.841 287, 301.607 287 C 302.373 287, 303.007 286.663, 303.015 286.250 C 303.064 283.844, 304.877 282.653, 306.474 283.979 C 307.880 285.145, 308.176 285.044, 308.650 283.232 C 308.951 282.078, 310.953 279.918, 313.099 278.431 C 317.266 275.544, 317.436 274.877, 316.091 266.701 C 315.416 262.594, 315.573 261.712, 317.182 260.585 C 321.641 257.462, 314.689 257.057, 251.761 256.776 C 203.087 256.558, 189.920 256.765, 189.542 257.750 M 618.570 256.750 C 564.559 256.990, 558.460 257.179, 556.820 258.663 C 554.432 260.824, 554.492 264.054, 556.931 264.692 C 559.008 265.235, 560.361 267.607, 559.441 269.095 C 559.131 269.598, 558.711 272.032, 558.510 274.504 C 558.144 278.999, 558.144 278.999, 562.072 279.627 C 565.115 280.114, 566 280.703, 566 282.244 C 566 283.827, 566.511 284.135, 568.500 283.755 C 569.875 283.492, 571 283.647, 571 284.098 C 571 284.550, 572.233 286.062, 573.740 287.460 C 576.480 290, 576.480 290, 622.932 290 L 669.384 290 673.248 294.144 C 675.961 297.053, 676.797 298.603, 676.056 299.344 C 675.329 300.071, 675 331.734, 675 401.089 C 675 495.674, 675.107 501.910, 676.758 503.950 C 678.516 506.121, 678.519 506.119, 691.008 493.742 C 697.879 486.933, 704.400 480.043, 705.500 478.431 C 707.478 475.532, 707.492 474.452, 706.789 380.500 C 706.397 328.250, 706.039 282.913, 705.992 279.750 C 705.927 275.427, 705.546 274, 704.453 274 C 703.654 274, 703 273.309, 703 272.465 C 703 269.922, 699.897 266, 697.885 266 C 696.848 266, 696 265.598, 696 265.106 C 696 263.444, 690.164 257.926, 689.516 258.974 C 688.372 260.825, 684.269 260.136, 683.710 258 C 683.348 256.614, 682.467 256.074, 680.844 256.242 C 679.555 256.375, 651.531 256.604, 618.570 256.750 M 224.949 314.450 C 223.780 315.620, 223.662 860.919, 224.830 862.759 C 225.750 864.209, 648.035 864.639, 650.619 863.193 C 652.525 862.126, 652.816 720.688, 650.917 718.400 C 649.238 716.377, 646.896 716.681, 646.290 719 C 646.002 720.100, 645.370 721, 644.884 721 C 644.399 721, 641.426 723.475, 638.278 726.500 C 635.130 729.525, 632.205 732, 631.777 732 C 631.350 732, 631 732.675, 631 733.500 C 631 734.325, 630.325 735, 629.500 735 C 628.675 735, 628 735.429, 628 735.952 C 628 737.194, 618.194 747, 616.952 747 C 616.429 747, 616 747.675, 616 748.500 C 616 749.325, 615.325 750, 614.500 750 C 613.675 750, 613 750.675, 613 751.500 C 613 752.325, 612.325 753, 611.500 753 C 610.675 753, 610 753.429, 610 753.952 C 610 755.194, 600.194 765, 598.952 765 C 598.429 765, 598 765.575, 598 766.278 C 598 767.712, 594.510 771, 592.989 771 C 592.445 771, 592 771.510, 592 772.134 C 592 773.549, 581.876 783.591, 580.793 783.250 C 580.357 783.113, 580 783.900, 580 785 C 580 786.100, 579.550 787, 579 787 C 577.703 787, 574 790.703, 574 792 C 574 792.550, 573.325 793, 572.500 793 C 571.675 793, 571 793.373, 571 793.829 C 571 794.286, 569.987 794.623, 568.750 794.579 C 567.147 794.523, 566.408 795.147, 566.180 796.750 C 565.817 799.312, 565.601 799.392, 562.925 797.960 C 561.295 797.087, 560.825 797.329, 560.015 799.460 C 558.912 802.361, 558.999 802.330, 555.535 801.013 C 553.250 800.145, 552.826 800.328, 551.980 802.554 C 551.174 804.671, 550.704 804.912, 549.075 804.040 C 546.341 802.577, 546.073 802.679, 544.959 805.609 C 544.180 807.656, 543.675 807.975, 542.610 807.091 C 540.813 805.600, 538.327 806.642, 537.667 809.164 C 537.227 810.847, 536.620 811.075, 534.069 810.515 C 532.381 810.144, 530.993 810.214, 530.985 810.671 C 530.941 813.059, 529.138 814.360, 527.620 813.100 C 525.699 811.505, 524 812.480, 524 815.176 C 524 817.258, 523.132 817.308, 518.690 815.484 C 517.325 814.923, 516.738 815.287, 516.298 816.967 C 515.816 818.813, 515.222 819.094, 512.826 818.615 C 510.424 818.135, 509.782 818.443, 509.023 820.439 C 508.322 822.282, 507.597 822.707, 505.905 822.265 C 504.444 821.883, 503.260 822.292, 502.393 823.478 C 501.422 824.806, 500.300 825.110, 498.042 824.658 C 495.308 824.112, 495 824.301, 495 826.525 C 495 829.118, 493.184 829.784, 491.287 827.887 C 489.819 826.419, 488 827.621, 488 830.059 C 488 832.243, 486.953 832.553, 485.267 830.867 C 483.671 829.271, 481 830.554, 481 832.917 C 481 834.689, 480.681 834.785, 477.949 833.832 C 476.271 833.247, 474.808 832.933, 474.699 833.134 C 472.567 837.052, 472.055 837.474, 469.768 837.196 C 468.002 836.981, 467.117 837.444, 466.773 838.761 C 466.380 840.264, 465.569 840.548, 462.642 840.206 C 459.734 839.867, 459 840.119, 459 841.455 C 459 842.740, 458.247 843.055, 455.750 842.814 C 453.253 842.573, 452.497 842.889, 452.487 844.179 C 452.468 846.677, 451.242 847.446, 449.537 846.031 C 447.520 844.357, 445.033 845.412, 445.629 847.689 C 446.059 849.333, 445.313 849.500, 437.551 849.500 C 429.672 849.500, 428.999 849.343, 428.985 847.500 C 428.962 844.589, 427.428 842.622, 425.696 843.286 C 424.519 843.738, 424.100 842.844, 423.774 839.182 C 423.263 833.455, 423.736 831.884, 425.864 832.232 C 427.166 832.445, 427.455 831.735, 427.280 828.750 C 427.092 825.547, 427.364 825, 429.141 825 C 430.978 825, 431.146 824.589, 430.566 821.500 C 429.983 818.392, 430.147 818, 432.034 818 C 433.875 818, 434.071 817.599, 433.500 814.999 C 433.008 812.760, 433.242 811.844, 434.420 811.392 C 435.422 811.008, 436 809.569, 436 807.460 C 436 804.981, 436.524 803.968, 438.060 803.481 C 439.714 802.956, 440 802.277, 439.510 800.043 C 439.006 797.752, 439.286 797.159, 441.089 796.687 C 442.978 796.193, 443.201 795.623, 442.703 792.557 C 442.199 789.451, 442.385 789, 444.174 789 C 445.974 789, 446.143 788.575, 445.566 785.500 C 444.983 782.392, 445.147 782, 447.034 782 C 448.885 782, 449.072 781.605, 448.485 778.931 C 447.925 776.383, 448.153 775.773, 449.827 775.335 C 451.480 774.903, 451.748 774.221, 451.314 771.549 C 450.867 768.791, 451.129 768.199, 453.021 767.705 C 454.798 767.240, 455.154 766.588, 454.760 764.525 C 454.400 762.639, 454.801 761.642, 456.227 760.878 C 457.838 760.016, 458.071 759.191, 457.525 756.280 C 456.962 753.279, 457.107 752.827, 458.467 753.349 C 460.573 754.157, 461.673 751.307, 460.178 748.914 C 458.968 746.976, 460.182 745.377, 462.007 746.504 C 463.558 747.463, 464.380 744.163, 463.003 742.504 C 461.995 741.289, 462.256 740.853, 464.502 739.999 C 466.809 739.122, 467.154 738.504, 466.776 735.929 C 466.444 733.663, 466.818 732.632, 468.253 731.865 C 469.683 731.099, 470.015 730.194, 469.548 728.335 C 469.052 726.357, 469.352 725.721, 470.982 725.294 C 472.726 724.838, 472.947 724.234, 472.411 721.378 C 471.854 718.407, 472.032 718, 473.889 718 C 476.206 718, 476.624 716.034, 474.965 712.934 C 474.062 711.247, 474.270 711, 476.590 711 C 479.012 711, 479.196 710.732, 478.650 708 C 478.145 705.477, 478.364 705, 480.025 705 C 481.111 705, 482 704.661, 482 704.246 C 482 703.831, 520.475 664.910, 567.500 617.754 L 653 532.016 653 424.043 C 653 316.070, 653 316.070, 650.902 314.947 C 648.001 313.395, 586.813 313.495, 583.895 315.056 C 582.196 315.965, 581.924 316.782, 582.427 319.464 C 582.942 322.210, 582.710 322.843, 581.022 323.284 C 579.819 323.599, 579 324.646, 579 325.871 C 579 327.003, 578.130 328.395, 577.068 328.964 C 576.005 329.533, 574.839 330.931, 574.477 332.071 C 574.072 333.348, 573.263 333.931, 572.372 333.589 C 571.576 333.284, 570.684 333.661, 570.390 334.427 C 570.096 335.193, 568.763 336.094, 567.428 336.429 C 565.819 336.833, 565 337.748, 565 339.144 C 565 340.955, 564.576 341.165, 561.969 340.644 C 557.951 339.840, 315.149 339.808, 312.250 340.610 C 310.429 341.114, 310 340.830, 310 339.117 C 310 337.091, 309.057 336.553, 306.186 336.940 C 304.551 337.160, 296 328.365, 296 326.464 C 296 325.697, 295.128 324.604, 294.063 324.034 C 292.560 323.229, 292.242 322.270, 292.642 319.749 C 293.508 314.296, 291.457 313.953, 256.553 313.712 C 238.221 313.585, 225.517 313.882, 224.949 314.450 M 269.626 370.137 C 268.547 370.771, 265.896 370.983, 263.376 370.638 C 259.591 370.119, 259 370.284, 259 371.858 C 259 372.979, 257.519 374.398, 255.145 375.554 C 253.024 376.585, 250.320 378.907, 249.135 380.714 C 247.951 382.521, 246.536 384, 245.991 384 C 245.446 384, 245 385.370, 245 387.044 C 245 389.388, 244.598 390.020, 243.250 389.794 C 241.605 389.518, 241.486 392.502, 241.261 439.314 C 241.024 488.638, 241.041 489.122, 243.011 488.497 C 244.698 487.961, 245 488.326, 245 490.897 C 245 492.944, 245.675 494.291, 247.078 495.042 C 248.267 495.678, 248.922 496.762, 248.609 497.577 C 248.293 498.401, 248.668 499, 249.500 499 C 250.367 499, 250.709 499.595, 250.362 500.500 C 250.018 501.396, 250.353 502, 251.194 502 C 253.709 502, 257.886 504.456, 258.343 506.205 C 258.967 508.590, 365 508.873, 365 506.490 C 365 505.709, 365.964 504.554, 367.143 503.924 C 369.850 502.475, 374.496 497.755, 375.314 495.623 C 375.657 494.731, 376.851 494, 377.969 494 C 380.104 494, 380.701 492.551, 379 491.500 C 377.003 490.266, 377.990 488, 380.525 488 C 383.050 488, 383.050 488, 382.775 439.251 C 382.504 391.261, 382.469 390.502, 380.500 390.501 C 378.858 390.500, 378.545 389.918, 378.754 387.250 C 378.927 385.036, 378.569 384, 377.633 384 C 376.877 384, 375.187 382.428, 373.879 380.507 C 372.571 378.586, 370.938 377.011, 370.250 377.007 C 369.563 377.003, 369 376.355, 369 375.567 C 369 374.779, 368.100 373.849, 367 373.500 C 365.900 373.151, 365 372.262, 365 371.524 C 365 369.948, 368.197 370.073, 313 369.482 C 283.859 369.169, 270.942 369.365, 269.626 370.137 M 414 389.206 C 414 390.271, 409.044 397.355, 407.730 398.167 C 406.911 398.673, 407.073 399.423, 408.290 400.768 C 409.230 401.807, 410 403.604, 410 404.761 C 410 405.969, 410.831 407.129, 411.949 407.484 C 413.021 407.824, 414.168 408.955, 414.499 409.997 C 415.420 412.900, 419.672 413.136, 465.078 412.804 C 506.656 412.500, 506.656 412.500, 509.828 409.327 C 511.573 407.582, 513 405.467, 513 404.627 C 513 403.787, 513.616 402.740, 514.369 402.300 C 516.547 401.028, 517.458 397, 515.567 397 C 514.705 397, 514 396.578, 514 396.062 C 514 395.546, 512.740 393.744, 511.201 392.059 C 508.402 388.994, 508.402 388.994, 461.201 388.747 C 435.240 388.611, 414 388.818, 414 389.206 M 558.247 391.891 C 557.362 393.756, 555.820 395.496, 554.819 395.758 C 553.591 396.079, 553 397.170, 553 399.117 C 553 400.702, 552.888 402.337, 552.750 402.750 C 552.612 403.163, 553.513 403.644, 554.750 403.820 C 555.987 403.995, 557 404.767, 557 405.534 C 557 406.302, 557.900 407.411, 559 408 C 560.100 408.589, 561 409.681, 561 410.428 C 561 412.828, 564.038 413.116, 587.310 412.923 C 609.538 412.738, 610.149 412.679, 609.646 410.755 C 609.254 409.256, 609.839 408.509, 612.065 407.670 C 614.738 406.660, 615 406.142, 615 401.863 C 615 399.278, 615.271 396.458, 615.602 395.596 C 616.010 394.531, 615.395 393.720, 613.686 393.071 C 612.301 392.544, 611.018 391.387, 610.834 390.500 C 610.539 389.072, 607.579 388.863, 585.178 388.693 L 559.856 388.500 558.247 391.891 M 269 396.500 C 269 397.325, 268.325 398, 267.500 398 C 266.192 398, 266 402.991, 266 436.918 C 266 458.323, 265.717 476.575, 265.370 477.478 C 264.939 478.601, 265.383 479.287, 266.778 479.652 C 267.898 479.945, 269.040 481.043, 269.314 482.092 C 269.795 483.931, 271.339 484, 312.232 484 C 354.651 484, 354.651 484, 356.826 481.686 C 358.984 479.388, 359 479.078, 359 438.841 C 359 400.845, 358.886 398.206, 357.171 396.655 C 354.517 394.253, 269 394.103, 269 396.500 M 784.287 434.280 C 768.008 450.560, 768.008 450.560, 769.254 453.946 C 770.607 457.624, 816.866 504.645, 820.427 505.962 C 823.942 507.262, 825.459 506.119, 841.019 490.448 C 852.974 478.408, 856.056 474.772, 855.190 473.729 C 854.582 472.996, 854.359 471.345, 854.695 470.060 C 855.496 466.994, 806.723 418, 802.870 418 C 801.227 418, 795.899 422.668, 784.287 434.280 M 415.725 465.609 C 415.326 466.007, 415 467.114, 415 468.069 C 415 469.088, 413.793 470.225, 412.073 470.825 C 409.758 471.632, 409.263 472.288, 409.702 473.968 C 410.064 475.353, 409.604 476.597, 408.379 477.546 C 406.596 478.925, 406.590 479.070, 408.250 480.360 C 409.212 481.108, 410 482.168, 410 482.714 C 410 483.261, 411.208 485.011, 412.684 486.604 C 415.368 489.500, 415.368 489.500, 512.434 489.500 C 609.500 489.500, 609.500 489.500, 612.500 486.500 C 616.860 482.140, 616.533 472.878, 611.953 470.981 C 610.176 470.244, 609 469.015, 609 467.893 C 609 466.088, 606.037 466.028, 514.750 466.009 C 462.913 465.998, 419.589 465.741, 418.475 465.437 C 417.361 465.133, 416.123 465.210, 415.725 465.609 M 746.500 473.440 C 744.850 474.190, 691.075 527.296, 627 591.454 C 510.500 708.106, 510.500 708.106, 512.963 710.135 C 514.596 711.481, 516.297 711.991, 518.014 711.647 C 520.086 711.233, 521.151 711.816, 523.344 714.565 C 524.852 716.454, 526.680 718, 527.408 718 C 528.395 718, 528.688 719.780, 528.562 725.023 C 528.426 730.664, 528.748 732.367, 530.196 733.678 C 531.188 734.575, 532 735.915, 532 736.655 C 532 737.395, 532.930 738, 534.067 738 C 535.680 738, 535.995 738.440, 535.500 740 C 535.098 741.265, 535.320 742, 536.104 742 C 536.785 742, 538.179 742.757, 539.201 743.682 C 540.839 745.164, 541.642 745.214, 545.986 744.100 C 551.809 742.608, 555 743.335, 555 746.154 C 555 747.480, 556.031 748.563, 558 749.306 C 560.738 750.339, 561 750.843, 561 755.064 C 561 761.174, 563.570 763.835, 567.785 762.089 C 570.216 761.082, 799.296 533.038, 803.440 527.500 C 805.477 524.777, 805.365 524, 802.937 524 C 801.550 524, 800.951 523.427, 801.108 522.250 C 801.384 520.177, 753.259 471.978, 750.974 472.039 C 750.163 472.061, 748.150 472.691, 746.500 473.440 M 271 510 C 271 510.650, 285.167 511, 311.500 511 C 337.833 511, 352 510.650, 352 510 C 352 509.350, 337.833 509, 311.500 509 C 285.167 509, 271 509.350, 271 510 M 262.022 560.852 C 261.174 562.713, 260.432 563.074, 258.475 562.583 C 257.087 562.235, 256 562.398, 256 562.955 C 256 564.518, 247.112 573, 245.474 573 C 243.756 573, 243.561 574.161, 245.033 575.633 C 246.645 577.245, 245.153 579.853, 242.949 579.276 C 241.072 578.786, 241.028 579.940, 241.048 628.887 C 241.067 677.059, 241.140 679, 242.927 679 C 244.830 679, 246.422 681.508, 245.483 683.027 C 245.195 683.493, 247.444 686.338, 250.480 689.350 C 253.516 692.362, 256 695.304, 256 695.888 C 256 696.535, 257.173 696.715, 259 696.350 C 261.480 695.854, 262 696.075, 262 697.625 C 261.999 699.436, 263.561 699.489, 307.551 699.170 C 336.679 698.959, 353.535 699.197, 354.301 699.831 C 355.878 701.135, 361 700.122, 361 698.506 C 361 696.334, 363.908 694.508, 365.242 695.842 C 366.935 697.535, 368 697.259, 368 695.129 C 368 694.100, 369.576 692.187, 371.502 690.879 C 373.427 689.571, 375.258 687.712, 375.569 686.750 C 375.880 685.788, 377.020 685, 378.103 685 C 379.738 685, 379.896 684.673, 379.035 683.066 C 377.273 679.773, 377.755 677.840, 380.250 678.187 C 382.500 678.500, 382.500 678.500, 382.760 630.229 C 383.019 581.958, 383.019 581.958, 380.442 580.978 C 378.368 580.190, 377.999 579.560, 378.548 577.749 C 379.682 574.011, 379.575 573.487, 377.737 573.797 C 376.762 573.961, 375.666 573.290, 375.287 572.297 C 374.909 571.309, 373.115 569.097, 371.300 567.382 C 369.485 565.667, 368 563.766, 368 563.157 C 368 562.461, 366.890 562.272, 365.013 562.647 C 362.564 563.137, 361.881 562.854, 361.223 561.074 C 360.420 558.904, 360.420 558.904, 311.757 558.702 C 263.093 558.500, 263.093 558.500, 262.022 560.852 M 479.750 575.757 C 416 576.015, 416 576.015, 416 578.507 C 416 580.241, 415.452 581, 414.200 581 C 412.021 581, 410 582.863, 410 584.871 C 410 585.680, 409.222 587.202, 408.271 588.253 C 406.632 590.064, 406.632 590.214, 408.271 591.132 C 409.222 591.664, 410.008 592.865, 410.017 593.800 C 410.042 596.220, 414.257 599.901, 417.821 600.614 C 419.861 601.022, 420.678 601.675, 420.319 602.610 C 419.655 604.342, 543.430 604.731, 544.500 603 C 544.909 602.338, 524.370 601.923, 483.809 601.772 L 422.500 601.543 486 601.022 C 549.500 600.500, 549.500 600.500, 552.200 597.754 C 557.331 592.537, 555.934 583.107, 549.674 580.705 C 548.753 580.352, 548 579.201, 548 578.148 C 548 575.409, 549.865 575.474, 479.750 575.757 M 270.417 582.917 C 270.187 583.146, 270 584.150, 270 585.148 C 270 586.195, 269.049 587.201, 267.750 587.527 C 265.500 588.091, 265.500 588.091, 265.705 628.935 C 265.910 669.778, 265.910 669.778, 268.756 672.894 C 271.602 676.010, 271.602 676.010, 312.505 676.070 C 353.408 676.129, 353.408 676.129, 354.207 673.970 C 354.646 672.783, 355.904 671.576, 357.003 671.289 C 358.959 670.777, 359 669.907, 359 628.883 C 359 587, 359 587, 356.570 587 C 354.894 587, 354.040 586.366, 353.820 584.960 C 353.504 582.948, 352.922 582.916, 312.167 582.710 C 289.433 582.594, 270.646 582.688, 270.417 582.917 M 412.750 660.984 C 411.238 662.573, 410 664.554, 410 665.387 C 410 666.219, 409.212 667.373, 408.250 667.950 C 406.583 668.949, 406.583 669.063, 408.250 670.360 C 409.212 671.108, 410 672.680, 410 673.852 C 410 675.024, 410.900 676.545, 412 677.232 C 413.100 677.919, 414 679.217, 414 680.117 C 414 681.597, 417.178 681.757, 447.500 681.806 C 480.442 681.858, 481 681.825, 481 679.843 C 481 678.549, 482.011 677.445, 483.821 676.762 C 486.519 675.743, 486.639 675.421, 486.571 669.349 C 486.523 665.039, 486.106 663, 485.273 663 C 484.598 663, 483.309 661.875, 482.408 660.500 C 480.770 658, 480.770 658, 448.135 658.048 C 415.500 658.096, 415.500 658.096, 412.750 660.984 M 494.035 733.934 C 493.466 734.998, 493 736.557, 493 737.399 C 493 738.241, 492.096 739.413, 490.991 740.005 C 489.533 740.785, 489.142 741.717, 489.565 743.404 C 490.010 745.177, 489.667 745.854, 488.120 746.258 C 486.405 746.707, 486.182 747.346, 486.677 750.394 C 487.152 753.324, 486.950 754, 485.599 754 C 483.478 754, 482.442 756.623, 483.879 758.355 C 485.199 759.944, 484.364 761, 481.788 761 C 480.175 761, 480.004 761.506, 480.580 764.573 C 481.166 767.699, 481.016 768.105, 479.375 767.823 C 477.773 767.547, 477.548 768.046, 477.828 771.250 C 478.009 773.313, 477.784 775.007, 477.328 775.015 C 474.883 775.061, 473.816 776.787, 474.937 778.882 C 475.941 780.759, 475.758 781.141, 473.432 782.026 C 471.059 782.928, 470.852 783.395, 471.437 786.516 C 472.010 789.572, 471.839 790, 470.045 790 C 467.813 790, 467.088 793.529, 469.177 794.226 C 469.846 794.449, 470.018 795.161, 469.576 795.877 C 469.148 796.570, 468.151 796.888, 467.361 796.585 C 465.516 795.877, 464.371 798.771, 465.893 800.293 C 466.772 801.172, 466.580 801.821, 465.102 802.976 C 462.426 805.067, 461.929 810.930, 464.303 812.390 C 465.738 813.273, 466.311 813.141, 467.106 811.744 C 467.826 810.481, 468.809 810.165, 470.614 810.618 C 472.604 811.117, 473.235 810.818, 473.666 809.170 C 474.108 807.480, 474.750 807.200, 477.105 807.671 C 479.576 808.165, 480 807.937, 480 806.113 C 480 804.166, 480.370 804.036, 484.166 804.643 C 487.751 805.216, 488.246 805.082, 487.710 803.686 C 486.911 801.604, 488.455 800.648, 490.729 801.819 C 493.131 803.055, 495 802.233, 495 799.942 C 495 798.375, 495.513 798.153, 497.985 798.647 C 500.196 799.089, 501.130 798.824, 501.592 797.622 C 501.990 796.583, 503.391 796, 505.490 796 C 507.922 796, 508.901 795.486, 509.288 794.006 C 509.716 792.369, 510.364 792.123, 512.905 792.631 C 515.604 793.171, 516 792.973, 516 791.080 C 516 789.141, 516.373 788.979, 519.500 789.566 C 522.602 790.148, 523 789.983, 523 788.111 C 523 785.680, 523.015 785.675, 526.463 786.986 C 528.718 787.843, 529.200 787.654, 530.165 785.538 C 531.076 783.538, 531.783 783.207, 534.137 783.677 C 536.318 784.114, 537 783.875, 537 782.675 C 537 781.808, 537.563 780.740, 538.252 780.300 C 541.778 778.047, 542.730 772, 539.558 772 C 538.829 772, 537.987 771.057, 537.686 769.905 C 537.226 768.147, 536.645 767.919, 534.069 768.485 C 531.434 769.064, 531 768.873, 531 767.138 C 531 764.489, 529.294 763.511, 527.406 765.078 C 526.162 766.111, 525.801 765.995, 525.339 764.414 C 525.031 763.362, 522.631 760.700, 520.006 758.500 C 517.381 756.300, 514.168 752.825, 512.867 750.777 C 511.565 748.729, 510.163 747.042, 509.750 747.027 C 509.337 747.012, 509 745.636, 509 743.969 C 509 741.997, 508.388 740.709, 507.250 740.284 C 506.288 739.925, 504.912 738.815, 504.193 737.816 C 503.475 736.817, 502.237 736, 501.443 736 C 500.649 736, 500 735.100, 500 734 C 500 731.309, 495.467 731.259, 494.035 733.934" stroke="none" fill="#9fb4b4" fill-rule="evenodd"/>
</svg>