<svg xmlns="http://www.w3.org/2000/svg" width="688" height="688" viewBox="0 0 688 688" version="1.1">
	<path d="M 163.116 115.631 C 160.878 117.199, 160.804 117.672, 161.197 127.881 C 161.473 135.018, 162.301 140.631, 163.723 145 C 164.887 148.575, 166.535 154.547, 167.385 158.272 C 168.236 161.996, 170.063 166.527, 171.446 168.340 C 172.829 170.154, 174.635 173.549, 175.459 175.885 C 176.284 178.221, 177.904 181.461, 179.061 183.085 C 180.217 184.710, 182.255 188.822, 183.588 192.224 C 184.921 195.626, 187.080 200.005, 188.385 201.955 C 189.690 203.905, 191.289 207.750, 191.939 210.500 C 192.589 213.250, 194.207 217.082, 195.534 219.016 C 196.896 221, 198.664 226.011, 199.592 230.516 C 200.496 234.907, 202.337 240.680, 203.683 243.344 C 205.326 246.598, 206.456 251.193, 207.124 257.344 C 207.672 262.380, 208.820 270.775, 209.676 276 C 210.532 281.225, 211.658 288.200, 212.178 291.500 C 213.231 298.169, 212.557 308.389, 210.464 317.500 C 209.706 320.800, 208.462 328.940, 207.700 335.589 C 206.586 345.314, 205.702 348.930, 203.180 354.089 C 201.455 357.615, 199.566 363.022, 198.981 366.105 C 198.397 369.188, 197.009 372.687, 195.897 373.881 C 194.785 375.074, 193.013 378.556, 191.959 381.619 C 190.906 384.681, 188.731 388.681, 187.128 390.507 C 185.524 392.334, 183.660 395.555, 182.985 397.664 C 182.311 399.774, 180.662 402.676, 179.322 404.114 C 177.982 405.552, 176.226 408.921, 175.420 411.600 C 174.614 414.279, 172.911 418.053, 171.636 419.986 C 170.361 421.919, 168.274 426.650, 166.998 430.500 C 165.723 434.350, 163.806 438.684, 162.740 440.130 C 161.674 441.577, 159.942 446.450, 158.892 450.961 C 157.841 455.471, 155.844 461.568, 154.452 464.509 C 153.036 467.504, 151.302 473.958, 150.513 479.178 C 149.737 484.305, 147.961 491.982, 146.566 496.238 C 144.823 501.551, 143.720 507.974, 143.044 516.738 C 142.503 523.757, 141.622 535.125, 141.088 542 C 138.891 570.261, 138.891 570.592, 141.111 573.413 C 143.298 576.194, 146.145 576.767, 147.749 574.750 C 148.299 574.059, 149.051 562.766, 149.432 549.500 C 150.217 522.112, 150.949 515.492, 154.356 504.995 C 155.694 500.873, 157.267 493.044, 157.851 487.598 C 158.617 480.462, 159.669 476.153, 161.615 472.175 C 163.101 469.139, 165.106 462.717, 166.071 457.904 C 167.051 453.021, 168.747 447.904, 169.909 446.327 C 171.054 444.772, 172.684 440.826, 173.533 437.557 C 175.589 429.635, 176.260 429, 182.588 429 C 187.024 429, 188.488 429.483, 191.215 431.846 C 193.022 433.412, 196.750 435.520, 199.500 436.530 C 202.250 437.541, 206.189 439.861, 208.253 441.684 C 210.317 443.508, 212.645 445, 213.426 445 C 214.208 445, 216.871 446.545, 219.346 448.434 C 221.820 450.323, 225.117 452.533, 226.673 453.345 C 228.228 454.157, 230.822 456.212, 232.437 457.911 C 234.052 459.610, 235.884 461, 236.507 461 C 237.130 461, 239.409 462.487, 241.570 464.305 C 243.732 466.123, 247.075 468.699, 249 470.030 C 250.925 471.360, 253.887 473.810, 255.583 475.474 C 257.278 477.138, 259.753 479.515, 261.083 480.754 C 262.412 481.994, 263.950 483.458, 264.500 484.007 C 265.050 484.557, 266.850 486.300, 268.500 487.881 C 270.150 489.463, 271.998 491.374, 272.607 492.128 C 273.215 492.883, 274.790 494.467, 276.107 495.648 C 277.423 496.829, 280.750 500.597, 283.500 504.021 C 286.250 507.445, 290.127 512.103, 292.116 514.373 C 294.105 516.643, 296.472 519.949, 297.376 521.720 C 298.281 523.492, 299.830 525.374, 300.818 525.903 C 301.807 526.432, 303.673 528.920, 304.965 531.432 C 306.257 533.945, 307.687 536, 308.143 536 C 308.598 536, 310.375 538.813, 312.091 542.250 C 313.807 545.688, 316.235 549.625, 317.485 551 C 318.736 552.375, 320.328 555.300, 321.024 557.500 C 321.720 559.700, 323.366 562.791, 324.681 564.370 C 325.996 565.948, 327.750 568.550, 328.578 570.151 C 330.328 573.536, 339.384 578, 344.500 578 C 351.337 578, 358.129 573.780, 362.791 566.636 C 365.152 563.020, 367.575 558.585, 368.176 556.780 C 368.777 554.976, 370.512 552.150, 372.033 550.500 C 373.553 548.850, 375.784 545.170, 376.991 542.322 C 378.197 539.473, 379.800 536.907, 380.552 536.619 C 381.304 536.330, 383.070 533.823, 384.476 531.047 C 385.883 528.271, 387.462 526, 387.986 526 C 388.510 526, 390.521 523.638, 392.455 520.750 C 394.389 517.862, 398.235 512.800, 401.002 509.500 C 403.769 506.200, 407.263 501.844, 408.767 499.820 C 410.270 497.796, 412.551 495.562, 413.835 494.855 C 415.120 494.149, 416.805 492.344, 417.580 490.845 C 418.355 489.346, 420.307 487.341, 421.917 486.390 C 423.526 485.439, 425.405 483.613, 426.091 482.331 C 426.777 481.049, 427.680 480, 428.098 480 C 428.516 480, 430.577 478.346, 432.679 476.325 C 437.639 471.554, 451.507 461, 452.816 461 C 453.374 461, 455.106 459.620, 456.665 457.934 C 458.224 456.247, 460.772 454.193, 462.327 453.368 C 463.883 452.543, 467.101 450.383, 469.480 448.567 C 471.859 446.751, 475.066 444.949, 476.607 444.562 C 478.149 444.176, 480.780 442.374, 482.455 440.559 C 484.194 438.674, 487.263 436.775, 489.610 436.131 C 491.871 435.511, 495.420 433.653, 497.498 432.002 C 500.630 429.512, 502.187 429, 506.614 429 C 512.762 429, 513.958 430.201, 515.912 438.341 C 516.552 441.003, 517.974 444.398, 519.073 445.885 C 520.172 447.372, 521.941 452.843, 523.004 458.044 C 524.067 463.245, 526.068 469.750, 527.451 472.500 C 529.203 475.985, 530.423 481.019, 531.479 489.114 C 532.312 495.502, 533.705 502.702, 534.576 505.114 C 537.352 512.807, 538.902 526.822, 539.593 550.478 C 539.963 563.140, 540.711 574.063, 541.256 574.750 C 544.626 579.008, 550.422 572.925, 549.562 566.034 C 549.251 563.540, 548.314 550.700, 547.480 537.500 C 545.854 511.759, 544.957 504.898, 541.989 495.500 C 540.947 492.200, 539.602 486.575, 539 483 C 537.352 473.205, 535.493 466.051, 533.152 460.500 C 531.992 457.750, 530.556 452.935, 529.961 449.801 C 529.366 446.666, 527.805 442.518, 526.491 440.583 C 525.178 438.647, 523.192 434.003, 522.078 430.262 C 520.964 426.520, 518.963 421.983, 517.632 420.179 C 516.301 418.375, 514.717 414.935, 514.113 412.534 C 513.509 410.134, 511.918 406.868, 510.579 405.276 C 509.240 403.684, 507.031 399.866, 505.671 396.790 C 504.310 393.714, 502.307 390.307, 501.219 389.219 C 500.131 388.131, 498.455 384.824, 497.495 381.870 C 496.535 378.917, 494.962 375.600, 494 374.500 C 491.404 371.534, 490.316 369.005, 489.490 364.024 C 489.082 361.562, 487.452 357.062, 485.867 354.024 C 483.705 349.877, 482.600 345.633, 481.435 337 C 480.581 330.675, 479.009 321.064, 477.941 315.642 C 476.874 310.220, 476 305.608, 476 305.392 C 476 304.108, 471.660 305.340, 469.867 307.133 C 467.297 309.703, 467.675 322.197, 470.559 330 C 471.474 332.475, 473.040 339.286, 474.038 345.136 C 475.305 352.554, 476.751 357.395, 478.818 361.136 C 480.448 364.086, 482.337 368.975, 483.015 372 C 483.693 375.025, 485.040 378.400, 486.007 379.500 C 488.351 382.166, 490.606 386.790, 491.431 390.624 C 491.801 392.343, 493.198 394.777, 494.536 396.034 C 498.098 399.380, 504 411.580, 504 415.596 C 504 419.209, 503.442 419.636, 494.283 423.025 C 492.514 423.679, 490.793 425.076, 490.459 426.128 C 490.125 427.180, 487.748 429.187, 485.176 430.588 C 482.604 431.988, 478.925 433.994, 477 435.045 C 475.075 436.096, 471.475 437.876, 469 439.001 C 462.638 441.892, 450.716 450.211, 442.168 457.725 C 422.942 474.626, 418.751 478.581, 417.496 481.007 C 416.700 482.547, 414.486 484.773, 412.576 485.953 C 410.666 487.134, 408.823 488.982, 408.481 490.061 C 408.138 491.139, 406.653 492.660, 405.179 493.441 C 403.706 494.221, 400.250 497.603, 397.500 500.957 C 394.750 504.311, 390.925 508.804, 389 510.943 C 382.106 518.602, 373.245 531.049, 370.075 537.527 C 368.991 539.742, 366.970 542.619, 365.585 543.921 C 364.199 545.222, 362.326 548.513, 361.422 551.234 C 360.518 553.955, 358.479 557.340, 356.889 558.756 C 355.300 560.172, 354 561.846, 354 562.477 C 354 563.107, 353.082 564.608, 351.961 565.811 C 347.828 570.247, 335 567.825, 335 562.609 C 335 562.051, 333.704 560.224, 332.121 558.548 C 330.537 556.871, 328.475 553.133, 327.537 550.240 C 326.600 547.348, 324.970 544.519, 323.915 543.955 C 322.860 543.390, 320.847 540.807, 319.440 538.214 C 309.328 519.570, 277.635 483.091, 256.936 466.270 C 253.396 463.394, 248.925 459.661, 247 457.976 C 239.638 451.531, 235.329 448.273, 230.500 445.501 C 227.750 443.922, 224.891 442.024, 224.146 441.282 C 223.401 440.541, 220.926 438.998, 218.646 437.854 C 216.366 436.710, 213.600 434.973, 212.500 433.994 C 211.400 433.014, 208.159 431.219, 205.298 430.004 C 202.437 428.789, 199.429 426.777, 198.613 425.533 C 197.719 424.168, 195.312 422.812, 192.546 422.116 C 186.155 420.507, 183.952 418.101, 184.962 413.836 C 185.992 409.488, 191.493 399.184, 194.485 396 C 195.777 394.625, 197.562 390.968, 198.452 387.873 C 199.342 384.778, 200.957 381.444, 202.040 380.463 C 203.124 379.483, 204.947 375.490, 206.093 371.590 C 207.238 367.691, 209.283 362.581, 210.638 360.236 C 212.080 357.739, 213.660 352.557, 214.448 347.736 C 215.189 343.206, 216.976 335, 218.419 329.500 C 223.277 310.982, 222.651 282.166, 216.975 263 C 216.405 261.075, 215.286 254.645, 214.489 248.711 C 213.413 240.704, 212.363 236.769, 210.416 233.447 C 208.489 230.158, 204.350 217.788, 204.017 214.321 C 204.008 214.223, 204.707 213.436, 205.571 212.571 C 208.132 210.010, 213.007 210.618, 216.452 213.927 C 218.620 216.009, 221.810 217.446, 227.500 218.903 C 231.900 220.030, 238.875 221.874, 243 223.001 C 252.290 225.539, 264.008 224.992, 274.500 221.531 C 278.350 220.261, 283.525 218.894, 286 218.494 C 291.150 217.663, 294.138 216.321, 295.325 214.308 C 295.779 213.538, 298.594 211.828, 301.579 210.507 C 314.041 204.996, 329.069 189.594, 335.887 175.344 C 339.136 168.553, 340.892 167.468, 346.975 168.496 C 350.663 169.119, 350.992 169.483, 353.323 175.513 C 357.746 186.959, 375.419 205.192, 387.117 210.379 C 390.078 211.692, 393.338 213.697, 394.362 214.836 C 395.424 216.016, 398.576 217.393, 401.697 218.041 C 404.708 218.666, 410.395 220.301, 414.335 221.674 C 425.743 225.650, 436.523 225.915, 448.121 222.505 C 453.280 220.989, 460.173 219.101, 463.441 218.310 C 467.080 217.429, 470.677 215.734, 472.726 213.936 C 476.464 210.653, 480.940 210.083, 483.429 212.571 C 484.293 213.436, 484.992 214.223, 484.983 214.321 C 484.655 217.735, 480.529 230.129, 478.655 233.325 C 476.897 236.325, 475.736 240.451, 474.921 246.590 C 474.270 251.490, 472.447 260.785, 470.869 267.244 C 467.241 282.093, 467.085 289.825, 470.338 293.606 C 472.676 296.324, 472.676 296.324, 474.732 294.268 C 475.863 293.137, 477.078 290.251, 477.433 287.856 C 477.787 285.460, 478.727 279.675, 479.522 275 C 480.317 270.325, 481.404 262.310, 481.938 257.189 C 482.587 250.969, 483.764 246.010, 485.485 242.251 C 486.902 239.156, 488.772 233.446, 489.640 229.562 C 490.508 225.678, 492.460 220.600, 493.977 218.278 C 495.494 215.956, 497.043 212.136, 497.418 209.787 C 497.793 207.439, 499.415 203.470, 501.022 200.966 C 502.628 198.463, 504.573 194.627, 505.344 192.443 C 506.114 190.259, 508.140 186.272, 509.845 183.583 C 511.551 180.894, 513.472 177.075, 514.115 175.097 C 514.758 173.119, 516.537 169.700, 518.069 167.500 C 519.890 164.884, 521.416 160.669, 522.479 155.317 C 523.373 150.816, 524.981 144.640, 526.052 141.592 C 528.866 133.587, 528.874 116.538, 526.066 115.035 C 519.920 111.746, 516.462 114.766, 517.385 122.617 C 518.598 132.937, 514.366 158.454, 510.925 161.568 C 509.912 162.485, 508.352 165.433, 507.460 168.120 C 506.568 170.807, 504.299 174.847, 502.419 177.097 C 500.538 179.348, 499 181.568, 499 182.031 C 499 183.302, 487.924 194.313, 484.500 196.446 C 482.850 197.474, 481.162 198.880, 480.749 199.570 C 480.336 200.261, 476.848 202.029, 472.999 203.500 C 469.150 204.971, 466 206.534, 466 206.972 C 466 209.140, 460.146 210.909, 446.500 212.864 C 431.500 215.013, 431.500 215.013, 417.156 212.592 C 406.108 210.728, 402.291 209.682, 400.545 208.043 C 399.299 206.872, 395.854 204.997, 392.890 203.876 C 389.925 202.755, 386.150 200.513, 384.500 198.893 C 380.704 195.166, 369.087 183.464, 365.191 179.441 C 363.561 177.759, 360.998 173.956, 359.495 170.990 C 357.992 168.024, 355.918 164.451, 354.885 163.049 C 353.735 161.488, 352.471 156.879, 351.623 151.155 C 350.089 140.803, 348.769 138.667, 343.906 138.667 C 339.885 138.667, 338.014 141.113, 337.956 146.441 C 337.876 153.934, 336.347 159.045, 333.204 162.329 C 331.535 164.073, 329.668 167.397, 329.055 169.716 C 326.783 178.317, 305.204 200.415, 295.470 204.110 C 292.859 205.101, 289.762 206.815, 288.587 207.918 C 286.331 210.038, 283.019 210.853, 265.867 213.512 C 252.267 215.621, 230.642 212.891, 223.500 208.165 C 221.300 206.709, 217.571 204.763, 215.213 203.841 C 208.865 201.359, 192.664 187.118, 189.727 181.438 C 188.890 179.820, 187.268 177.648, 186.123 176.612 C 184.979 175.576, 183.100 172.202, 181.949 169.114 C 180.797 166.026, 178.980 162.563, 177.910 161.417 C 175.016 158.317, 172.991 147.284, 172.330 131 C 172.006 123.025, 171.294 115.938, 170.748 115.250 C 169.370 113.515, 165.889 113.689, 163.116 115.631 M 127.627 271.250 C 126.847 272.488, 125.885 274.625, 125.489 276 C 125.094 277.375, 123.971 279.400, 122.995 280.500 C 122.019 281.600, 120.075 284.750, 118.676 287.500 C 115.698 293.349, 108.905 301, 106.688 301 C 105.840 301, 103.875 302.517, 102.323 304.372 C 100.770 306.227, 97.968 308.524, 96.096 309.477 C 91.486 311.825, 84.682 316.820, 83.696 318.580 C 82.560 320.607, 83.386 321.541, 89.031 324.613 C 91.764 326.101, 94 327.629, 94 328.009 C 94 328.389, 96.813 329.897, 100.250 331.360 C 107.833 334.588, 116.069 342.521, 118.566 349 C 119.519 351.475, 121.308 354.625, 122.540 356 C 123.772 357.375, 125.739 360.413, 126.910 362.750 C 128.320 365.563, 129.698 367, 130.986 367 C 134.045 367, 139.533 361.501, 140.846 357.121 C 141.501 354.934, 143.576 351.302, 145.458 349.050 C 147.340 346.798, 149.142 344.126, 149.464 343.114 C 150.300 340.479, 159.122 333.305, 164.206 331.126 C 166.583 330.107, 169.120 328.560, 169.844 327.688 C 170.568 326.816, 172.811 325.572, 174.830 324.925 C 185.165 321.609, 183.254 315.453, 170 309.361 C 166.975 307.971, 163.600 306.006, 162.500 304.996 C 161.400 303.985, 158.475 302.103, 156.001 300.815 C 152.800 299.147, 150.968 297.321, 149.651 294.486 C 148.633 292.294, 146.967 289.594, 145.949 288.488 C 144.931 287.381, 143.125 284.231, 141.936 281.488 C 139.456 275.767, 133.432 269, 130.820 269 C 129.844 269, 128.408 270.012, 127.627 271.250 M 552.746 272.750 C 550.733 274.813, 548.374 278.519, 547.504 280.986 C 546.634 283.453, 544.857 286.603, 543.554 287.986 C 542.252 289.369, 540.488 292.198, 539.635 294.273 C 538.712 296.517, 536.806 298.745, 534.931 299.773 C 533.198 300.723, 530.367 302.511, 528.640 303.746 C 526.913 304.981, 523.025 307.154, 520 308.574 C 507.671 314.362, 504.863 320.460, 512.750 324.319 C 515.362 325.598, 519.250 327.849, 521.390 329.322 C 523.529 330.795, 525.840 332, 526.525 332 C 528.387 332, 538.832 340.895, 539.522 343.068 C 539.851 344.106, 541.660 346.798, 543.542 349.050 C 545.424 351.302, 547.499 354.934, 548.154 357.121 C 549.575 361.864, 555.244 367.249, 558.349 366.807 C 559.736 366.609, 561.213 365.017, 562.507 362.323 C 563.612 360.025, 565.456 357.100, 566.605 355.823 C 567.755 354.545, 569.466 351.512, 570.407 349.082 C 572.759 343.011, 581.184 334.881, 589.033 331.109 C 594.784 328.346, 596.930 327.037, 604.405 321.730 C 607.557 319.493, 602.681 314.449, 592.197 309.100 C 589.969 307.964, 587.853 306.112, 587.495 304.986 C 587.138 303.859, 584.855 302.002, 582.423 300.859 C 579.990 299.715, 578 298.480, 578 298.113 C 578 297.746, 576.639 295.955, 574.975 294.133 C 573.311 292.312, 571.010 288.949, 569.862 286.661 C 568.714 284.372, 566.977 281.600, 566.002 280.500 C 565.027 279.400, 563.906 277.375, 563.511 276 C 561.275 268.226, 558.097 267.267, 552.746 272.750 M 126.989 290.250 C 125.899 292.038, 125.006 294.301, 125.004 295.280 C 124.999 297.452, 116.631 306.154, 112.500 308.283 C 107.165 311.033, 101 317.005, 101 319.423 C 101 322.325, 103.576 324.581, 107.955 325.513 C 113.433 326.680, 122.290 335.789, 124.897 342.937 C 127.187 349.217, 128.682 350.452, 132.321 349.068 C 135.232 347.961, 140.914 341.546, 142.168 337.949 C 143.441 334.297, 151.149 327.960, 158.250 324.728 C 162.230 322.916, 164 321.542, 164 320.264 C 164 317.549, 156.048 310.211, 150.143 307.475 C 145.690 305.412, 144.649 304.339, 142.256 299.350 C 139.726 294.073, 132.654 287, 129.908 287 C 129.392 287, 128.079 288.462, 126.989 290.250 M 553.683 290.619 C 550.580 293.036, 548.214 296.038, 546.557 299.657 C 544.334 304.512, 543.485 305.338, 538.411 307.582 C 532.831 310.049, 524.123 318.062, 524.040 320.805 C 524.018 321.523, 526.452 323.194, 529.448 324.520 C 538.003 328.303, 544.861 333.726, 547.092 338.472 C 549.305 343.180, 554.387 348.445, 557.671 349.432 C 560.555 350.299, 563.214 347.388, 564.736 341.696 C 566.182 336.289, 576.052 326.574, 581.212 325.476 C 591.594 323.269, 589.120 314.955, 576 307.959 C 570.926 305.253, 565.449 299.109, 564.002 294.500 C 562.779 290.603, 560.381 287, 559.009 287 C 558.635 287, 556.238 288.629, 553.683 290.619 M 338.042 351.125 C 333.630 352.452, 322.553 363.795, 320.962 368.614 C 320.315 370.577, 319.957 375.233, 320.168 378.962 C 320.551 385.741, 320.551 385.741, 326.410 391.371 C 329.632 394.467, 332.596 397, 332.997 397 C 333.397 397, 335.424 398.350, 337.500 400 C 342.196 403.732, 346.418 403.884, 351.405 400.500 C 353.431 399.125, 355.529 398, 356.067 398 C 358.888 398, 367.980 386.414, 368.995 381.524 C 371.286 370.489, 367.728 362.059, 358 355.475 C 350.845 350.632, 344.370 349.220, 338.042 351.125 M 338.405 361.106 C 337.357 362.265, 334.898 364.031, 332.939 365.030 C 325.096 369.033, 326.034 383.447, 334.487 388.800 C 342.825 394.079, 357.154 390.736, 359.896 382.870 C 361.829 377.322, 360.543 366, 357.979 366 C 357.525 366, 355.090 364.425, 352.568 362.500 C 347.031 358.274, 341.462 357.726, 338.405 361.106" stroke="none" fill="#9fb4b4" fill-rule="evenodd"/>
</svg>