<svg width="338" height="96" viewBox="0 0 338 96" fill="none" xmlns="http://www.w3.org/2000/svg">
<path d="M323.571 0.00464967C322.603 15.5014 306.38 26.2032 291.081 26.7246C275.782 27.246 261.281 20.423 247.206 14.2627C233.143 8.10168 217.899 2.35217 202.848 5.13838C171.473 10.9357 155.7 49.9328 125.237 59.4927C99.659 67.5199 72.2395 52.3329 45.6311 55.3684C26.6639 57.542 9.09159 69.6093 0.0711605 86.6551M324.116 2.19198C323.388 12.6311 315.696 20.7967 306.15 25.1633C301.355 27.3481 296.07 28.6021 290.895 28.7244C283.442 28.9033 276.182 27.3657 269.109 24.975C261.475 22.4076 254.063 18.8484 246.723 15.5226C244.978 14.7359 243.222 13.9501 241.434 13.1891C228.768 7.80491 215.185 3.7221 201.845 6.32095C180.536 10.3948 166.408 29.7948 149.764 44.2612C142.112 50.914 133.973 56.5222 124.441 59.3211C119.702 60.7073 114.898 61.3259 110.058 61.4249C90.2865 61.8494 69.6963 53.9067 49.5992 55.1259C48.2171 55.2108 46.8382 55.341 45.4512 55.5172C26.7011 57.914 9.38887 70.02 0.507747 86.9766M324.661 4.39061C323.852 14.9489 315.889 23.0767 306.189 27.3291C301.312 29.4629 295.955 30.6537 290.721 30.7233C283.183 30.8173 275.839 29.1948 268.725 26.6934C261.047 23.9815 253.623 20.2528 246.241 16.7937C244.493 15.9732 242.713 15.1663 240.924 14.3827C228.156 8.82394 214.344 4.81394 200.865 7.52457C179.759 11.7773 165.638 30.9611 148.957 44.8964C141.278 51.3128 133.161 56.5902 123.68 59.1584C118.978 60.4398 114.214 60.9763 109.405 61.039C89.7658 61.2839 69.293 53.7418 49.405 55.2302C48.0356 55.337 46.6686 55.4777 45.3055 55.6749C26.7621 58.3072 9.71957 70.4284 0.978536 87.3071M325.194 6.57873C324.292 17.2457 316.07 25.3461 306.217 29.4956C301.258 31.5784 295.841 32.7053 290.524 32.7126C282.903 32.7329 275.474 31.0254 268.317 28.3908C260.586 25.5464 253.171 21.6354 245.746 18.043C243.985 17.1894 242.203 16.3486 240.389 15.544C227.53 9.79856 213.476 5.85084 199.851 8.70792C178.933 13.0951 164.845 32.1063 148.105 45.5235C140.409 51.6912 132.291 56.6395 122.885 58.9981C118.221 60.1747 113.495 60.629 108.728 60.6434C89.222 60.7088 68.8667 53.5671 49.1877 55.3248C47.8303 55.4422 46.476 55.6047 45.1368 55.8229C26.8104 58.6785 10.028 70.8383 1.42706 87.6392M325.739 8.77735C324.756 19.5635 316.262 27.6261 306.256 31.6614C301.203 33.6826 295.726 34.7569 290.35 34.7116C282.634 34.659 275.132 32.8545 267.932 30.0979C260.146 27.1097 252.732 23.0397 245.263 19.3029C243.488 18.4161 241.693 17.5535 239.866 16.7158C226.906 10.7958 212.619 6.89825 198.858 9.88971C178.13 14.4114 164.074 33.25 147.286 46.1369C139.562 52.0682 131.455 56.6864 122.111 58.8136C117.484 59.8742 112.798 60.2575 108.061 60.2357C88.6996 60.1207 68.4515 53.3917 48.9696 55.4082C47.6249 55.5473 46.2944 55.7309 44.9552 55.9491C26.8347 59.0287 10.3237 71.2265 1.85089 87.9389M326.272 10.9655C325.207 21.8595 316.431 29.8963 306.272 33.8174C301.137 35.7875 295.589 36.7987 290.142 36.7016C282.342 36.5754 274.756 34.6859 267.514 31.8074C259.685 28.6859 252.258 24.4352 244.746 20.565C242.958 19.6451 241.15 18.7494 239.321 17.8891C226.27 11.7938 211.74 7.93592 197.834 11.0851C177.292 15.7299 163.26 34.4194 146.424 46.776C138.671 52.4595 130.575 56.7477 121.295 58.6662C116.705 59.6219 112.058 59.9231 107.364 59.8643C88.1351 59.5697 68.0045 53.2412 48.7324 55.5382C47.4116 55.6984 46.0819 55.8933 44.7666 56.1326C26.8639 59.4468 10.6225 71.6598 2.27867 88.2951M326.817 13.1641C325.659 24.1781 316.624 32.1763 306.312 35.9945C301.095 37.9136 295.475 38.8616 289.969 38.7118C282.085 38.5007 274.414 36.5263 267.13 33.5258C259.247 30.2719 251.819 25.8396 244.264 21.8362C242.474 20.8824 240.652 19.9648 238.799 19.0722C225.645 12.791 210.874 8.99542 196.843 12.2895C176.489 17.0575 162.49 35.5856 145.595 47.4128C137.826 52.859 129.74 56.8173 120.522 58.5043C115.97 59.3552 111.351 59.575 106.698 59.4679C87.6136 58.993 67.5781 53.0666 48.5263 55.6321C47.2173 55.8028 45.9116 56.0187 44.6089 56.2798C26.9122 59.8181 10.9421 72.0689 2.73755 88.615M327.361 15.3514C326.122 26.4733 316.816 34.4562 306.35 38.149C301.051 40.0057 295.36 40.9019 289.783 40.7003C281.804 40.4163 274.06 38.3561 266.734 35.2224C258.796 31.8247 251.378 27.2213 243.78 23.0847C241.977 22.1091 240.142 21.1471 238.276 20.244C225.021 13.7882 210.017 10.0315 195.851 13.4713C175.696 18.3617 161.719 36.7293 144.777 48.0375C136.979 53.2359 128.904 56.8642 119.75 58.3424C115.224 59.0894 110.656 59.2374 106.044 59.082C87.0921 58.4162 67.1748 52.9017 48.3321 55.7364C47.0358 55.929 45.7427 56.1667 44.4632 56.4375C26.9843 60.2104 11.2736 72.4886 3.20834 88.9455M327.895 17.5508C326.574 28.7919 316.997 36.7257 306.389 40.3148C301.008 42.1204 295.245 42.9535 289.608 42.6993C281.547 42.3416 273.718 40.1965 266.35 36.9408C258.369 33.4099 250.939 28.6257 243.298 24.3558C241.481 23.3471 239.644 22.3625 237.766 21.4263C224.42 14.7952 209.172 11.0782 194.86 14.6757C174.892 19.6779 160.95 37.8956 143.948 48.6743C136.134 53.6354 128.058 56.9345 118.977 58.1806C114.488 58.8114 109.96 58.8886 105.379 58.6856C86.5706 57.8395 66.7597 52.7263 48.126 55.8303C46.8424 56.0446 45.5724 56.2921 44.2944 56.5855C27.0214 60.5825 11.5709 72.8993 3.64493 89.2671M328.439 19.7382C327.026 31.0992 317.178 39.0064 306.417 42.4813C300.954 44.2359 295.12 45.0059 289.411 44.6885C281.265 44.2459 273.352 42.0158 265.942 38.6382C257.906 34.9635 250.475 30.0091 242.792 25.6059C240.973 24.5633 239.111 23.5464 237.22 22.5883C223.772 15.7826 208.292 12.1045 193.845 15.8478C174.065 20.9731 160.145 39.0303 143.107 49.2892C135.264 54.0026 127.199 56.9717 118.182 58.0089C113.73 58.535 109.241 58.53 104.702 58.29C86.0267 57.2643 66.3341 52.5629 47.9087 55.9249C46.6379 56.1611 45.3806 56.4304 44.1256 56.7336C27.0697 60.9538 11.8897 73.2972 4.09266 89.5878M328.973 21.9376C327.478 33.4065 317.36 41.2872 306.446 44.6592C300.9 46.3514 294.995 47.0696 289.227 46.6996C280.997 46.1833 273 43.8683 265.547 40.3574C257.457 36.5502 250.025 31.4143 242.31 26.8884C240.478 25.8126 238.615 24.7731 236.699 23.7827C223.159 16.7904 207.437 13.1633 192.844 17.0642C173.25 22.2902 159.365 40.2086 142.268 49.9381C134.397 54.415 126.354 57.0533 117.389 57.8712C112.974 58.2925 108.524 58.2053 104.016 57.9178C85.4845 56.7117 65.8982 52.4116 47.6818 56.0429C46.4341 56.2888 45.1783 56.5807 43.9473 56.9049C27.098 61.3605 12.1877 73.7192 4.53077 89.9319M329.517 24.1249C327.941 35.7131 317.551 43.5558 306.484 46.8137C300.845 48.4556 294.88 49.1098 289.041 48.688C280.717 48.0989 272.646 45.6868 265.15 42.054C257.018 38.1135 249.584 32.796 241.815 28.1377C239.969 27.0288 238.093 25.9562 236.175 24.9432C222.534 17.7763 206.568 14.1889 191.851 18.2347C172.444 23.5725 158.594 41.3523 141.437 50.5523C133.55 54.7806 125.506 57.0897 116.615 57.6867C112.237 57.9919 107.816 57.8346 103.36 57.5093C84.9622 56.1237 65.4933 52.2241 47.486 56.1247C46.251 56.3924 45.0184 56.694 43.7889 57.0409C27.1567 61.7197 12.5176 74.1163 4.98881 90.2406M330.063 26.3235C328.404 38.0196 317.744 45.8358 306.524 48.9908C300.803 50.5816 294.766 51.1727 288.868 50.6983C280.46 50.0355 272.305 47.5385 264.767 43.7837C256.58 39.6995 249.145 34.2117 241.334 29.4201C239.474 28.2781 237.585 27.1837 235.654 26.1375C221.922 18.7953 205.712 15.2363 190.861 19.4504C171.64 24.8888 157.814 42.5306 140.621 51.1996C132.705 55.1914 124.67 57.148 115.844 57.5475C111.503 57.7365 107.121 57.5083 102.696 57.1356C84.4311 55.5704 65.0797 52.0713 47.2822 56.2524C46.0599 56.542 44.84 56.8654 43.6335 57.222C27.1953 62.1144 12.8156 74.5383 4.94535 90.5635" stroke="currentColor" stroke-width="0.169396" stroke-miterlimit="10"/>
</svg>
