<svg width="175" height="46" viewBox="0 0 175 46" fill="none" xmlns="http://www.w3.org/2000/svg">
  <!-- Rose motif: original bounds x=113-183, y=0-67; scale 0.567, translated to sit left -->
  <g transform="translate(-62.1, 4) scale(0.567)">
    <path d="M149.43 54.7009C149.43 54.7009 155.768 43.2187 167.227 44.8262C178.686 46.4107 183.164 51.6237 183.164 51.6237C183.164 51.6237 178.526 50.1539 173.014 53.8742C167.503 57.5944 159.488 62.2102 149.43 54.7009Z" fill="#96B2B2"/>
    <path d="M162.007 21.9547C162.007 21.9317 161.984 21.8628 161.961 21.8399C161.938 21.771 161.915 21.6791 161.892 21.6102C161.8 21.3117 161.708 21.0132 161.64 20.7376C160.836 17.4307 161.571 14.2157 162.306 12.1719C161.272 12.4245 159.94 12.8608 158.448 13.4808C158.333 13.5268 158.218 13.5727 158.103 13.6186C157.736 13.7794 157.345 13.9401 156.955 14.1238C156.794 14.1927 156.61 14.2846 156.427 14.3535C155.99 14.5602 155.554 14.7669 155.095 14.9965C154.98 15.0654 154.865 15.1113 154.75 15.1802C154.176 15.4787 153.625 15.7773 153.051 16.0988C152.959 16.1677 152.844 16.2136 152.752 16.2825C152.224 16.604 151.673 16.9255 151.145 17.2929C151.076 17.3389 151.03 17.3618 150.961 17.4078C150.341 17.8211 149.744 18.2574 149.147 18.7167C149.124 18.7397 149.101 18.7626 149.078 18.7856C147.218 20.2324 145.45 21.9547 143.911 24.0445C143.153 25.0779 142.487 26.1572 141.89 27.2824L141.752 27.581C141.752 27.581 141.752 27.581 141.752 27.6039C141.5 28.0862 141.27 28.5684 141.064 29.0507C140.811 29.6707 140.558 30.2908 140.329 30.9108C140.099 31.5768 139.892 32.2427 139.732 32.8857C139.709 33.0006 139.686 33.0924 139.663 33.2073C139.525 33.7354 139.41 34.2636 139.341 34.7688C139.318 34.8607 139.318 34.9755 139.295 35.0674C139.226 35.5726 139.157 36.0548 139.135 36.5141C139.135 36.606 139.135 36.6979 139.135 36.8127C139.112 37.272 139.134 37.7083 139.157 38.1216C139.157 38.2365 139.18 38.3283 139.18 38.4431C139.226 38.8106 139.272 39.178 139.341 39.5225C139.364 39.6143 139.387 39.7062 139.41 39.798C139.502 40.1655 139.617 40.5099 139.732 40.8314C139.755 40.9003 139.777 40.9692 139.823 41.0151C139.961 41.3596 140.145 41.6811 140.329 42.0026C140.352 42.0485 140.398 42.0945 140.421 42.1404C141.109 43.1968 142.051 44.1153 143.268 44.8272L143.291 44.8502C144.118 45.3325 145.059 45.7458 146.139 46.0903C146.988 46.3429 147.815 46.5266 148.596 46.6644C148.619 46.6644 148.642 46.6644 148.642 46.6644C149.216 46.7562 149.744 46.8251 150.249 46.8711C150.272 46.8711 150.272 46.8711 150.295 46.8711C151.214 46.9629 151.949 46.9629 152.385 46.9629C152.454 46.9629 152.523 46.9629 152.592 46.9629C152.638 46.94 152.706 46.894 152.775 46.8481C153.166 46.5955 153.556 46.3429 153.947 46.0903C154.015 46.0443 154.061 46.0214 154.13 45.9755C154.222 45.9066 154.291 45.8377 154.383 45.7917L154.567 45.631C154.98 45.3325 155.37 45.011 155.738 44.6895C155.853 44.5976 155.944 44.4828 156.059 44.3909C156.702 43.8168 157.322 43.1738 157.919 42.4849C157.942 42.4619 157.942 42.4619 157.965 42.4389C157.965 42.4389 157.988 42.4389 157.988 42.416C158.057 42.3241 158.126 42.2552 158.195 42.1634C158.195 42.1634 158.195 42.1404 158.218 42.1404C158.218 42.1404 158.218 42.1404 158.241 42.1174C158.31 42.0256 158.379 41.9337 158.448 41.8419C158.677 41.5433 158.907 41.2448 159.136 40.9463C159.251 40.7855 159.343 40.6248 159.458 40.464C159.665 40.1655 159.848 39.8669 160.032 39.5684C160.147 39.3847 160.262 39.178 160.354 38.9943C160.537 38.6498 160.721 38.3283 160.882 37.9838C160.951 37.8461 161.02 37.7083 161.088 37.5705C161.272 37.1801 161.433 36.7897 161.594 36.3763C161.64 36.2615 161.686 36.1237 161.731 36.0089C161.846 35.7104 161.938 35.3889 162.053 35.0674C162.168 34.6999 162.283 34.3325 162.374 33.9421C163.385 30.1071 163.362 25.9964 162.122 22.0466L162.007 21.9547Z" fill="#96B2B2"/>
    <path d="M138.95 44.1918C138.49 43.5947 138.146 42.9288 137.825 42.2628C136.952 40.3338 136.837 38.4507 135.459 36.7743C135.436 36.7284 135.39 36.6824 135.367 36.6595C135.23 36.4987 135.069 36.315 134.908 36.1313C134.862 36.0854 134.816 36.0165 134.77 35.9705C134.655 35.8328 134.541 35.7179 134.403 35.5802C134.334 35.5113 134.265 35.4424 134.196 35.3735C134.081 35.2587 133.966 35.1438 133.852 35.029C133.76 34.9601 133.691 34.8683 133.599 34.7994C133.484 34.6846 133.346 34.5927 133.232 34.4779C133.14 34.409 133.048 34.3171 132.956 34.2482C132.818 34.1564 132.703 34.0415 132.566 33.9497C132.474 33.8808 132.359 33.8119 132.267 33.72C132.129 33.6282 131.992 33.5363 131.831 33.4445C131.716 33.3756 131.624 33.3067 131.509 33.2378C131.349 33.1459 131.188 33.0541 131.027 32.9852C130.912 32.9393 130.82 32.8704 130.706 32.8244C130.522 32.7326 130.338 32.6637 130.154 32.5718C130.063 32.5259 129.971 32.48 129.856 32.457C129.557 32.3422 129.259 32.2503 128.96 32.1585C127.904 31.8599 126.825 31.7451 125.722 31.791C125.676 31.791 125.63 31.791 125.584 31.791C125.355 31.814 125.125 31.837 124.873 31.8829C124.712 31.9058 124.574 31.9059 124.413 31.9288C124.23 31.9518 124.046 32.0207 123.862 32.0436C123.655 32.0896 123.426 32.1355 123.219 32.1814C123.081 32.2274 122.944 32.2733 122.783 32.3192C122.53 32.4111 122.278 32.48 122.002 32.5718C121.887 32.6178 121.795 32.6637 121.681 32.7096C121.382 32.8244 121.083 32.9622 120.785 33.1C120.716 33.1459 120.624 33.1919 120.555 33.2148C120.234 33.3756 119.889 33.5593 119.568 33.743C117.432 34.9831 115.228 36.7973 113 39.1396C116.169 39.3923 121.703 40.9998 130.568 46.9016C131.142 47.2461 131.716 47.5446 132.313 47.8431L132.612 47.9809C132.635 47.9809 132.635 48.0039 132.658 48.0269C133.898 48.601 135.161 49.0373 136.47 49.3817C136.47 49.3817 136.516 49.3818 136.516 49.4047C140.328 50.3692 144.323 50.3003 148.09 49.1521C147.148 48.9684 146.184 48.7387 145.242 48.4172C142.923 47.6365 140.58 46.3505 138.95 44.1918Z" fill="#96B2B2"/>
    <path d="M138.766 53.2265C138.032 53.0887 137.32 52.8361 136.631 52.5375C133.163 51.0219 129.167 49.5062 125.332 50.2641C120.808 51.1597 118.282 55.2014 117.065 59.358C116.721 60.5062 116.675 66.3391 116.055 66.8214C118.581 64.8924 123.771 62.4122 134.311 60.8736C134.954 60.7588 135.597 60.598 136.24 60.4143L136.562 60.3225C136.585 60.3225 136.608 60.3225 136.631 60.3225C137.94 59.9321 139.18 59.4039 140.397 58.7609C143.887 56.9467 146.827 54.2139 148.848 50.8382C148.044 51.3434 147.148 51.8027 146.253 52.1931C144.025 53.1576 141.43 53.7546 138.766 53.2265Z" fill="#96B2B2"/>
    <path d="M155.657 11.7348C155.519 11.597 155.358 11.4592 155.22 11.3214C154.853 10.9999 154.486 10.6784 154.118 10.3799C153.957 10.2421 153.774 10.1273 153.613 9.98951C153.222 9.71393 152.832 9.43836 152.442 9.18576C152.258 9.07093 152.074 8.95611 151.891 8.84129C147.298 6.3841 148.859 0 148.859 0C145.552 1.21711 142.912 6.72856 142.314 9.98951C141.809 12.7223 140.937 15.2484 140.225 17.9122C140.179 18.1189 140.11 18.3026 140.064 18.5093C139.811 19.4968 139.582 20.5302 139.398 21.5636C139.398 21.6325 139.375 21.6784 139.375 21.7473C139.697 21.7243 139.995 21.7013 140.294 21.7013C140.362 21.7013 140.408 21.7013 140.454 21.7013C140.592 21.7013 140.707 21.7243 140.822 21.7243C141.143 21.7473 141.442 21.7702 141.763 21.8391C141.901 21.8621 142.039 21.8851 142.177 21.931C142.269 21.954 142.36 21.954 142.452 21.9769C144.886 18.8767 147.803 16.5344 150.834 14.6742C151.339 14.3757 151.845 14.0772 152.35 13.8016C152.534 13.7097 152.694 13.6179 152.878 13.5031C153.222 13.3193 153.567 13.1356 153.911 12.9749C154.118 12.8601 154.325 12.7682 154.531 12.6763C154.876 12.5156 155.22 12.3548 155.542 12.1941C155.657 12.1482 155.794 12.0793 155.909 12.0333C155.84 11.9185 155.749 11.8267 155.657 11.7348Z" fill="#96B2B2"/>
    <path d="M140.774 24.0996C140.498 24.0766 140.223 24.0766 139.924 24.0996C139.786 24.0996 139.671 24.0996 139.534 24.1225C139.12 24.1685 138.684 24.2374 138.248 24.3522C137.65 24.5129 137.076 24.6507 136.525 24.7655C136.342 24.8115 136.158 24.8344 135.997 24.8574C133.379 25.3396 130.6 25.4545 127.959 25.0181C125.181 24.5589 122.586 23.4336 119.83 22.9284C118.406 22.6528 114.893 21.5505 113.859 21.918C113.859 21.918 118.085 25.3167 119.646 30.1851C119.669 30.3918 119.715 30.6215 119.738 30.8281C120.243 30.5755 120.749 30.3688 121.254 30.1851C121.438 30.1162 121.598 30.0703 121.782 30.0244C122.127 29.9096 122.448 29.7947 122.792 29.7258C122.999 29.6799 123.206 29.634 123.413 29.5881C123.711 29.5192 124.01 29.4732 124.308 29.4273C124.515 29.4043 124.744 29.3814 124.951 29.3584C125.25 29.3354 125.525 29.3125 125.824 29.3125C125.939 29.3125 126.031 29.2895 126.145 29.2895C126.237 29.2895 126.329 29.3125 126.421 29.3125C126.788 29.3125 127.133 29.3584 127.5 29.3814C127.661 29.4043 127.845 29.4043 128.005 29.4273C128.534 29.4962 129.039 29.611 129.544 29.7488C129.934 29.8636 130.325 30.0014 130.692 30.1392C130.807 30.1851 130.922 30.2311 131.037 30.3C131.289 30.4148 131.519 30.5066 131.749 30.6215C131.886 30.6904 132.001 30.7592 132.139 30.8281C132.346 30.943 132.552 31.0578 132.759 31.1726C132.874 31.2415 133.012 31.3333 133.126 31.4022C133.31 31.5171 133.517 31.6549 133.701 31.7926C133.815 31.8615 133.93 31.9534 134.045 32.0223C134.229 32.1601 134.413 32.2978 134.596 32.4586C134.688 32.5275 134.78 32.6194 134.872 32.6883C135.055 32.849 135.262 33.0327 135.423 33.1935C135.492 33.2394 135.561 33.3083 135.607 33.3542C136.089 33.8135 136.525 34.2728 136.939 34.7091C136.939 34.6862 136.939 34.6632 136.962 34.6402C137.007 34.3876 137.053 34.158 137.099 33.9054C137.099 33.8824 137.099 33.8365 137.099 33.8135L137.145 33.5839C137.145 33.5379 137.168 33.515 137.191 33.492C137.237 33.2853 137.283 33.1016 137.329 32.8949C137.352 32.826 137.352 32.7571 137.352 32.6883C137.352 32.6883 137.398 32.4816 137.421 32.4356C137.605 31.7008 137.834 30.92 138.11 30.1162C138.11 30.0933 138.133 30.0703 138.133 30.0244C138.316 29.4732 138.546 28.9221 138.776 28.3709C138.822 28.2561 138.868 28.1413 138.936 28.0035C139.005 27.8198 139.097 27.6591 139.166 27.4983C139.281 27.2687 139.373 27.039 139.488 26.8094C139.694 26.419 139.878 26.0286 140.108 25.6382C140.154 25.5693 140.177 25.5004 140.222 25.4315C140.475 24.9952 140.728 24.5359 141.003 24.1225C140.911 24.0996 140.843 24.0996 140.774 24.0996Z" fill="#96B2B2"/>
    <path d="M138.02 21.4642C138.25 20.2011 138.48 19.1447 138.732 18.1343L138.847 17.698C139.123 16.6646 139.375 15.8379 139.605 15.0341C139.812 14.2993 140.018 13.5874 140.202 12.8984C138.273 13.8629 136.206 14.5519 134.139 15.149C132.096 15.746 128.559 17.2157 126.584 15.9527C125.849 15.4934 125.321 14.6897 124.701 14.0237C124.402 13.7252 124.173 13.2199 123.622 13.4955C123.093 13.7481 123.116 14.2533 123.231 14.7356C123.943 18.4329 129.087 23.3013 132.807 22.6813C134.438 22.4057 136.183 22.1531 137.951 21.8775L138.02 21.4642Z" fill="#96B2B2"/>
    <path d="M127.906 22.6405C122.372 19.4255 120.236 14.8097 121.936 8.56337C120.879 8.24187 119.272 8.93079 118.445 10.102C117.55 11.365 117.205 12.8118 117.504 14.3045C118.009 16.8994 118.973 19.3107 121.362 20.7804C123.337 21.9746 125.61 22.342 127.906 22.6405Z" fill="#96B2B2"/>
    <path d="M136.576 1.96556C138.298 5.75468 137.632 9.2223 135.336 12.5292C135.382 12.5981 135.405 12.644 135.451 12.7129C136.232 12.2995 137.058 11.978 137.793 11.4958C139.401 10.4394 140.549 8.99265 141.49 7.33921C141.628 7.08661 141.743 6.81104 141.835 6.53546C142.409 4.95092 142.133 3.61899 141.054 2.67745C139.561 1.32255 138.367 1.13884 136.576 1.96556Z" fill="#96B2B2"/>
    <path d="M134.712 2.15125C134.689 1.20971 134.207 0.750408 133.472 0.451871C131.405 -0.397811 127.869 -0.282982 126.353 2.86314C125.687 4.241 125.113 5.66479 124.539 7.11155C127.456 4.49361 131.015 3.18465 134.712 2.15125Z" fill="#96B2B2"/>
    <path d="M134.459 11.1109C133.793 11.2487 133.196 11.4554 132.599 11.5013C130.831 11.6621 129.774 10.9731 128.971 9.11301C128.718 8.5389 128.466 7.98776 127.777 7.96479C127.042 7.91886 126.445 8.2863 126.031 8.90634C124.653 10.9502 125.618 13.2466 128.029 13.66C130.326 14.0733 132.324 13.4762 133.931 11.731C134.138 11.5472 134.276 11.3406 134.459 11.1109Z" fill="#96B2B2"/>
    <path d="M129.32 6.19963C130.698 6.29149 131.387 7.21007 132.03 8.19754C132.673 9.18501 133.339 9.46057 134.235 9.1161C135.291 8.72571 135.658 8.05974 135.452 6.84263C135.245 5.62552 134.35 4.82176 133.132 4.77583C131.663 4.7299 130.469 5.34995 129.32 6.19963Z" fill="#96B2B2"/>
  </g>

  <!-- CARISMA letters: original x=0-297, y=92-128; scale 0.421 -->
  <g transform="translate(50, -27) scale(0.421)">
    <path d="M5.67221 123.785C1.12526 119.697 0 114.37 0 109.915C0 106.768 1.07931 101.303 5.25883 97.1234C8.06049 94.3218 12.3319 92.1172 19.5427 92.1172C21.4258 92.1172 24.0437 92.255 26.3402 92.6913C28.1314 93.0128 29.6241 93.2884 31.1168 93.4032C31.622 93.4491 31.7138 93.6328 31.7138 93.9084C31.7138 94.2758 31.576 94.8499 31.4842 96.5263C31.3923 98.065 31.3923 100.637 31.3464 101.349C31.3005 102.061 31.2086 102.336 30.933 102.336C30.6115 102.336 30.5656 102.015 30.5656 101.349C30.5656 99.5117 29.8078 97.6056 28.5907 96.5722C26.9602 95.1714 23.3318 93.9084 19.2212 93.9084C12.9978 93.9084 10.0814 95.7455 8.45088 97.3301C5.02919 100.614 4.22544 104.771 4.22544 109.547C4.22544 118.503 11.1147 126.702 21.1502 126.702C24.6637 126.702 27.4195 126.288 29.3026 124.359C30.29 123.326 30.8871 121.259 31.0249 120.432C31.1167 119.927 31.2086 119.72 31.4842 119.72C31.7138 119.72 31.8057 120.042 31.8057 120.432C31.8057 120.754 31.2316 124.841 30.7723 126.426C30.4967 127.322 30.4048 127.413 29.5552 127.781C27.6721 128.539 24.1126 128.86 21.1272 128.86C14.1001 128.86 9.36948 127.115 5.67221 123.785Z" fill="#96B2B2"/>
    <path d="M60.1778 93.9543C60.7519 92.4157 60.9356 92.1172 61.2112 92.1172C61.4868 92.1172 61.6705 92.3468 62.2446 93.7936C62.9565 95.5848 70.3051 114.921 73.1527 122.04C74.8291 126.219 76.207 126.954 77.1715 127.23C77.8834 127.459 78.5723 127.505 79.0545 127.505C79.3301 127.505 79.5138 127.551 79.5138 127.781C79.5138 128.056 79.1005 128.148 78.5723 128.148C77.8604 128.148 74.4617 128.148 71.2237 128.056C70.3281 128.011 69.8229 128.011 69.8229 127.735C69.8229 127.551 69.9607 127.459 70.1444 127.413C70.42 127.322 70.6955 126.908 70.42 126.15L66.0567 114.622C65.9649 114.439 65.873 114.347 65.6433 114.347H55.562C55.3323 114.347 55.1945 114.484 55.1027 114.714L52.301 123.004C51.8877 124.175 51.6351 125.301 51.6351 126.15C51.6351 127.092 52.6225 127.505 53.4263 127.505H53.8856C54.2071 127.505 54.3448 127.597 54.3448 127.781C54.3448 128.056 54.0693 128.148 53.633 128.148C52.5077 128.148 50.4868 128.011 49.9816 128.011C49.4764 128.011 46.8814 128.148 44.6769 128.148C44.0798 128.148 43.7812 128.056 43.7812 127.781C43.7812 127.597 43.9649 127.505 44.1946 127.505C44.5161 127.505 45.1821 127.459 45.5495 127.413C47.7082 127.138 48.6497 125.347 49.4764 123.004L60.1778 93.9543ZM65.0463 112.693C65.2759 112.693 65.2759 112.555 65.23 112.372L60.7749 99.7184C60.5452 99.0065 60.3156 99.0065 60.063 99.7184L55.9524 112.372C55.8605 112.601 55.9523 112.693 56.0901 112.693H65.0463Z" fill="#96B2B2"/>
    <path d="M96.5178 106.322C96.5178 99.0193 96.5178 97.7103 96.4259 96.1947C96.3341 94.6101 95.9666 93.8523 94.405 93.5308C94.0376 93.439 93.2339 93.393 92.8205 93.393C92.6368 93.393 92.4531 93.3012 92.4531 93.1174C92.4531 92.8419 92.6827 92.75 93.2109 92.75C95.3236 92.75 98.2631 92.8878 98.5157 92.8878C99.0209 92.8878 102.58 92.75 104.05 92.75C107.013 92.75 110.136 93.0256 112.616 94.8168C113.787 95.6665 115.854 97.9629 115.854 101.178C115.854 104.646 114.407 108.113 110.182 111.994C114.017 116.909 117.209 121.088 119.919 123.982C122.445 126.645 124.465 127.174 125.637 127.357C126.532 127.495 127.175 127.495 127.474 127.495C127.703 127.495 127.887 127.633 127.887 127.771C127.887 128.046 127.612 128.138 126.762 128.138H123.432C120.814 128.138 119.643 127.908 118.426 127.243C116.405 126.163 114.775 123.867 112.111 120.353C110.136 117.781 107.931 114.635 107.013 113.418C106.829 113.234 106.691 113.142 106.392 113.142L100.628 113.051C100.399 113.051 100.307 113.188 100.307 113.418V114.543C100.307 119.044 100.307 122.741 100.537 124.716C100.674 126.071 100.95 127.105 102.374 127.288C103.04 127.38 104.05 127.472 104.486 127.472C104.762 127.472 104.854 127.61 104.854 127.748C104.854 127.977 104.624 128.115 104.096 128.115C101.524 128.115 98.5616 127.977 98.332 127.977C98.2861 127.977 95.3236 128.115 93.9228 128.115C93.4176 128.115 93.165 128.023 93.165 127.748C93.165 127.61 93.2568 127.472 93.5324 127.472C93.9457 127.472 94.5199 127.38 94.9332 127.288C95.8748 127.105 96.1044 126.071 96.2881 124.716C96.5178 122.741 96.5178 119.044 96.5178 114.543V106.322ZM100.261 110.387C100.261 110.616 100.353 110.8 100.582 110.961C101.294 111.374 103.43 111.719 105.497 111.719C106.622 111.719 107.931 111.581 109.01 110.823C110.641 109.698 111.858 107.172 111.858 103.612C111.858 97.7563 108.758 94.2427 103.752 94.2427C102.351 94.2427 101.088 94.3805 100.605 94.5183C100.376 94.6101 100.238 94.7938 100.238 95.0924V110.387H100.261Z" fill="#96B2B2"/>
    <path d="M146.057 114.566C146.057 119.067 146.057 122.764 146.287 124.739C146.425 126.094 146.7 127.128 148.124 127.311C148.79 127.403 149.8 127.495 150.237 127.495C150.512 127.495 150.604 127.633 150.604 127.771C150.604 128 150.375 128.138 149.846 128.138C147.274 128.138 144.312 128 144.082 128C143.853 128 140.89 128.138 139.489 128.138C138.984 128.138 138.732 128.046 138.732 127.771C138.732 127.633 138.823 127.495 139.099 127.495C139.512 127.495 140.086 127.403 140.5 127.311C141.441 127.128 141.671 126.094 141.855 124.739C142.084 122.764 142.084 119.067 142.084 114.566V106.322C142.084 99.0193 142.084 97.7103 141.993 96.1947C141.901 94.6101 141.418 93.8064 140.408 93.5767C139.903 93.4389 139.283 93.393 138.961 93.393C138.777 93.393 138.594 93.3012 138.594 93.1174C138.594 92.8419 138.823 92.75 139.352 92.75C140.89 92.75 143.853 92.8878 144.082 92.8878C144.312 92.8878 147.274 92.75 148.675 92.75C149.18 92.75 149.433 92.8419 149.433 93.1174C149.433 93.3012 149.249 93.393 149.066 93.393C148.744 93.393 148.468 93.439 147.894 93.5308C146.631 93.7605 146.264 94.5642 146.172 96.1947C146.08 97.6873 146.08 98.9963 146.08 106.322V114.566H146.057Z" fill="#96B2B2"/>
    <path d="M169.978 127.597C169.312 127.276 169.266 127.092 169.266 125.806C169.266 123.464 169.449 121.58 169.495 120.846C169.541 120.34 169.633 120.088 169.863 120.088C170.138 120.088 170.184 120.226 170.184 120.593C170.184 121.006 170.184 121.672 170.322 122.315C171.034 125.783 174.111 127.092 177.257 127.092C181.758 127.092 183.963 123.854 183.963 120.869C183.963 117.631 182.608 115.77 178.566 112.441L176.453 110.718C171.493 106.654 170.368 103.737 170.368 100.545C170.368 95.5389 174.111 92.1172 180.059 92.1172C181.896 92.1172 183.251 92.3009 184.422 92.5765C185.318 92.7602 185.685 92.8061 186.053 92.8061C186.42 92.8061 186.512 92.8979 186.512 93.1276C186.512 93.3572 186.328 94.9188 186.328 98.0879C186.328 98.8457 186.236 99.1672 186.007 99.1672C185.731 99.1672 185.685 98.9376 185.639 98.5472C185.593 97.9731 185.318 96.7101 185.019 96.2048C184.744 95.6996 183.481 93.7247 179.163 93.7247C175.925 93.7247 173.399 95.7455 173.399 99.1672C173.399 101.831 174.616 103.53 179.117 107.044L180.426 108.077C185.961 112.441 187.27 115.334 187.27 119.077C187.27 121.006 186.512 124.566 183.297 126.862C181.276 128.263 178.75 128.837 176.224 128.837C174.042 128.86 171.907 128.516 169.978 127.597Z" fill="#96B2B2"/>
    <path d="M244.502 122.178C244.685 123.854 245.007 126.495 247.028 127.138C248.383 127.551 249.6 127.551 250.082 127.551C250.312 127.551 250.449 127.597 250.449 127.781C250.449 128.056 250.036 128.194 249.462 128.194C248.429 128.194 243.376 128.148 241.631 128.011C240.552 127.919 240.322 127.781 240.322 127.551C240.322 127.368 240.414 127.276 240.644 127.23C240.873 127.184 240.919 126.38 240.827 125.553L238.577 101.234H238.439L226.957 125.599C225.969 127.666 225.832 128.079 225.418 128.079C225.097 128.079 224.844 127.62 223.971 125.921C222.754 123.624 218.713 115.518 218.483 115.059C218.07 114.209 212.811 102.979 212.306 101.716H212.122L210.239 123.464C210.193 124.221 210.193 125.048 210.193 125.852C210.193 126.564 210.698 127.161 211.41 127.299C212.214 127.482 212.903 127.528 213.201 127.528C213.385 127.528 213.569 127.62 213.569 127.758C213.569 128.079 213.293 128.171 212.719 128.171C210.997 128.171 208.746 128.033 208.356 128.033C207.942 128.033 205.692 128.171 204.429 128.171C203.969 128.171 203.625 128.079 203.625 127.758C203.625 127.62 203.855 127.528 204.084 127.528C204.452 127.528 204.796 127.528 205.485 127.39C207.024 127.115 207.162 125.278 207.368 123.51L210.744 92.9669C210.79 92.4616 210.974 92.1172 211.249 92.1172C211.525 92.1172 211.708 92.3009 211.961 92.8291L226.291 122.292L240.069 92.875C240.253 92.4617 240.437 92.1172 240.781 92.1172C241.126 92.1172 241.241 92.4846 241.333 93.3802L244.502 122.178Z" fill="#96B2B2"/>
    <path d="M276.818 93.9543C277.37 92.4157 277.576 92.1172 277.852 92.1172C278.127 92.1172 278.311 92.3468 278.885 93.7936C279.597 95.5848 286.946 114.921 289.793 122.04C291.493 126.219 292.848 126.954 293.812 127.23C294.524 127.459 295.213 127.505 295.695 127.505C295.971 127.505 296.154 127.551 296.154 127.781C296.154 128.056 295.741 128.148 295.213 128.148C294.501 128.148 291.079 128.148 287.864 128.056C286.969 128.011 286.463 128.011 286.463 127.735C286.463 127.551 286.601 127.459 286.785 127.413C287.061 127.322 287.359 126.908 287.061 126.15L282.697 114.622C282.605 114.439 282.514 114.347 282.284 114.347H272.203C271.973 114.347 271.835 114.484 271.743 114.714L268.942 123.004C268.528 124.175 268.276 125.301 268.276 126.15C268.276 127.092 269.263 127.505 270.067 127.505H270.526C270.848 127.505 270.986 127.597 270.986 127.781C270.986 128.056 270.71 128.148 270.274 128.148C269.148 128.148 267.127 128.011 266.622 128.011C266.117 128.011 263.522 128.148 261.317 128.148C260.697 128.148 260.422 128.056 260.422 127.781C260.422 127.597 260.606 127.505 260.835 127.505C261.157 127.505 261.823 127.459 262.19 127.413C264.349 127.138 265.29 125.347 266.117 123.004L276.818 93.9543ZM281.687 112.693C281.916 112.693 281.917 112.555 281.871 112.372L277.416 99.7184C277.186 99.0065 276.956 99.0065 276.704 99.7184L272.593 112.372C272.501 112.601 272.593 112.693 272.731 112.693H281.687Z" fill="#96B2B2"/>
  </g>

  <!-- AESTHETICS text: original x=20-257, y=145-157; same scale 0.421 -->
  <g transform="translate(50, -31.7) scale(0.421)" opacity="0.8">
    <path d="M29.9416 156.695L28.6766 153.727H22.9841L21.7191 156.695H20.2919L25.2222 145.343H26.4385L31.3688 156.695H29.9416ZM23.4869 152.544H28.1739L26.3737 148.327C26.2872 148.132 26.2223 147.981 26.179 147.873C26.1358 147.765 26.0817 147.613 26.0169 147.419C25.9952 147.354 25.952 147.24 25.8871 147.078L25.8385 146.948H25.8222L25.7736 147.078C25.7087 147.24 25.6655 147.354 25.6439 147.419C25.579 147.613 25.5249 147.765 25.4817 147.873C25.4384 147.981 25.3736 148.132 25.2871 148.327L23.4869 152.544ZM49.9019 155.447H56.2431V156.695H48.572V145.343H56.1458V146.592H49.9019V150.095H54.9132V151.279H49.9019V155.447ZM81.5416 148.148L80.2766 148.489L80.1144 148.554C80.0495 148.208 79.936 147.9 79.7738 147.629C79.6225 147.359 79.4116 147.127 79.1413 146.932C78.8819 146.737 78.6007 146.592 78.298 146.494C77.9845 146.397 77.6493 146.348 77.2925 146.348C76.5465 146.348 75.9356 146.51 75.4599 146.835C74.9841 147.159 74.7463 147.608 74.7463 148.181C74.7463 148.484 74.8382 148.743 75.022 148.959C75.195 149.165 75.4328 149.343 75.7356 149.495C76.0383 149.646 76.3681 149.776 76.7249 149.884L77.8439 150.224C78.1899 150.322 78.6116 150.462 79.1089 150.646C79.5522 150.808 79.9576 151.019 80.3253 151.279C80.7037 151.538 81.0118 151.852 81.2497 152.219C81.4984 152.598 81.6227 153.062 81.6227 153.614C81.6227 154.09 81.5254 154.528 81.3308 154.928C81.1361 155.328 80.8604 155.674 80.5036 155.966C80.1469 156.257 79.7144 156.484 79.2062 156.647C78.6872 156.798 78.1196 156.874 77.5033 156.874C76.9195 156.874 76.3681 156.798 75.8491 156.647C75.3517 156.484 74.9247 156.257 74.5679 155.966C74.2327 155.684 73.9354 155.333 73.6759 154.911C73.438 154.5 73.2758 154.063 73.1893 153.598L74.4706 153.257C74.5138 153.571 74.6111 153.884 74.7625 154.198C74.903 154.49 75.1085 154.755 75.3788 154.992C75.6383 155.219 75.9464 155.398 76.3032 155.528C76.66 155.657 77.0763 155.722 77.552 155.722C78.3953 155.722 79.0603 155.528 79.5468 155.138C80.0333 154.749 80.2766 154.252 80.2766 153.646C80.2766 153.235 80.1631 152.9 79.936 152.641C79.6982 152.371 79.417 152.149 79.0927 151.976C78.7575 151.803 78.3737 151.657 77.9412 151.538C77.6601 151.462 77.2492 151.338 76.7086 151.165C76.3519 151.057 76.0059 150.938 75.6707 150.808C75.3139 150.668 74.9679 150.489 74.6327 150.273C74.3192 150.068 74.0543 149.792 73.8381 149.446C73.6326 149.111 73.5299 148.7 73.5299 148.213C73.5299 147.77 73.6272 147.365 73.8218 146.997C74.0165 146.629 74.2868 146.305 74.6327 146.024C74.9571 145.764 75.3734 145.548 75.8815 145.375C76.3681 145.213 76.8979 145.132 77.4709 145.132C78.0115 145.132 78.498 145.202 78.9305 145.343C79.3738 145.483 79.7792 145.689 80.1469 145.959C80.482 146.208 80.7794 146.527 81.0388 146.916C81.2767 147.283 81.4443 147.694 81.5416 148.148ZM98.0953 145.343H107.015V146.592H103.204V156.695H101.89V146.592H98.0953V145.343ZM131.825 145.343H133.138V156.695H131.825V151.441H125.613V156.695H124.283V145.343H125.613V150.192H131.825V145.343ZM152.914 155.447H159.256V156.695H151.585V145.343H159.158V146.592H152.914V150.095H157.926V151.279H152.914V155.447ZM176.04 145.343H184.96V146.592H181.148V156.695H179.835V146.592H176.04V145.343ZM203.558 156.695H202.228V145.343H203.558V156.695ZM232.224 148.1L230.878 148.44L230.781 148.424C230.391 147.786 229.856 147.289 229.175 146.932C228.494 146.575 227.759 146.397 226.969 146.397C226.321 146.397 225.721 146.51 225.169 146.737C224.618 146.965 224.142 147.278 223.742 147.678C223.342 148.078 223.029 148.565 222.801 149.138C222.574 149.7 222.461 150.322 222.461 151.003C222.461 151.684 222.574 152.306 222.801 152.868C223.029 153.43 223.347 153.917 223.758 154.327C224.148 154.717 224.629 155.03 225.202 155.268C225.753 155.495 226.348 155.609 226.986 155.609C227.861 155.609 228.656 155.398 229.37 154.976C230.094 154.555 230.64 153.987 231.008 153.273L232.321 153.63C232.073 154.149 231.775 154.603 231.429 154.992C231.083 155.382 230.678 155.728 230.213 156.03C229.748 156.333 229.251 156.555 228.721 156.695C228.191 156.857 227.624 156.939 227.018 156.939C226.218 156.939 225.456 156.798 224.731 156.517C224.029 156.225 223.407 155.82 222.866 155.301C222.337 154.782 221.915 154.154 221.601 153.419C221.299 152.706 221.147 151.911 221.147 151.035C221.147 150.192 221.304 149.397 221.618 148.651C221.931 147.916 222.353 147.289 222.883 146.77C223.412 146.251 224.039 145.845 224.764 145.554C225.477 145.262 226.24 145.116 227.051 145.116C227.624 145.116 228.159 145.186 228.656 145.327C229.208 145.478 229.689 145.678 230.1 145.927C230.564 146.197 230.965 146.51 231.3 146.867C231.667 147.246 231.975 147.656 232.224 148.1ZM257.082 148.148L255.817 148.489L255.655 148.554C255.59 148.208 255.476 147.9 255.314 147.629C255.163 147.359 254.952 147.127 254.682 146.932C254.422 146.737 254.141 146.592 253.838 146.494C253.525 146.397 253.19 146.348 252.833 146.348C252.087 146.348 251.476 146.51 251 146.835C250.525 147.159 250.287 147.608 250.287 148.181C250.287 148.484 250.379 148.743 250.562 148.959C250.735 149.165 250.973 149.343 251.276 149.495C251.579 149.646 251.909 149.776 252.265 149.884L253.384 150.224C253.73 150.322 254.152 150.462 254.649 150.646C255.093 150.808 255.498 151.019 255.866 151.279C256.244 151.538 256.552 151.852 256.79 152.219C257.039 152.598 257.163 153.062 257.163 153.614C257.163 154.09 257.066 154.528 256.871 154.928C256.677 155.328 256.401 155.674 256.044 155.966C255.687 156.257 255.255 156.484 254.747 156.647C254.228 156.798 253.66 156.874 253.044 156.874C252.46 156.874 251.909 156.798 251.39 156.647C250.892 156.484 250.465 156.257 250.108 155.966C249.773 155.684 249.476 155.333 249.216 154.911C248.978 154.5 248.816 154.063 248.73 153.598L250.011 153.257C250.054 153.571 250.152 153.884 250.303 154.198C250.444 154.49 250.649 154.755 250.919 154.992C251.179 155.219 251.487 155.398 251.844 155.528C252.2 155.657 252.617 155.722 253.092 155.722C253.936 155.722 254.601 155.528 255.087 155.138C255.574 154.749 255.817 154.252 255.817 153.646C255.817 153.235 255.704 152.9 255.476 152.641C255.239 152.371 254.958 152.149 254.633 151.976C254.298 151.803 253.914 151.657 253.482 151.538C253.201 151.462 252.79 151.338 252.249 151.165C251.892 151.057 251.546 150.938 251.211 150.808C250.854 150.668 250.508 150.489 250.173 150.273C249.86 150.068 249.595 149.792 249.379 149.446C249.173 149.111 249.07 148.7 249.07 148.213C249.07 147.77 249.168 147.365 249.362 146.997C249.557 146.629 249.827 146.305 250.173 146.024C250.498 145.764 250.914 145.548 251.422 145.375C251.909 145.213 252.438 145.132 253.011 145.132C253.552 145.132 254.038 145.202 254.471 145.343C254.914 145.483 255.32 145.689 255.687 145.959C256.022 146.208 256.32 146.527 256.579 146.916C256.817 147.283 256.985 147.694 257.082 148.148Z" fill="#96B2B2"/>
  </g>
</svg>
